<?xml version="1.0" encoding="UTF-8" standalone="no"?>
<!-- Created with Inkscape (http://www.inkscape.org/) -->

<svg
   xmlns:osb="http://www.openswatchbook.org/uri/2009/osb"
   xmlns:dc="http://purl.org/dc/elements/1.1/"
   xmlns:cc="http://creativecommons.org/ns#"
   xmlns:rdf="http://www.w3.org/1999/02/22-rdf-syntax-ns#"
   xmlns:svg="http://www.w3.org/2000/svg"
   xmlns="http://www.w3.org/2000/svg"
   xmlns:xlink="http://www.w3.org/1999/xlink"
   xmlns:sodipodi="http://sodipodi.sourceforge.net/DTD/sodipodi-0.dtd"
   xmlns:inkscape="http://www.inkscape.org/namespaces/inkscape"
   width="800"
   height="550"
   viewBox="0 0 211.66666 145.52084"
   version="1.1"
   id="svg5212"
   inkscape:version="0.92.1 r"
   sodipodi:docname="inline_trap-compat.svg">
  <defs
     id="defs5206">
    <linearGradient
       id="linearGradient5786"
       osb:paint="solid">
      <stop
         style="stop-color:#ffffff;stop-opacity:1;"
         offset="0"
         id="stop5784" />
    </linearGradient>
    <linearGradient
       id="linearGradient5780"
       osb:paint="solid">
      <stop
         style="stop-color:#00b100;stop-opacity:1;"
         offset="0"
         id="stop5778" />
    </linearGradient>
    <linearGradient
       inkscape:collect="always"
       xlink:href="#linearGradient5786"
       id="linearGradient5788"
       x1="22.183371"
       y1="184.21223"
       x2="65.748299"
       y2="184.21223"
       gradientUnits="userSpaceOnUse"
       gradientTransform="matrix(2.2081152,0,0,0.45875067,-43.5558,100.83255)" />
    <linearGradient
       inkscape:collect="always"
       xlink:href="#linearGradient5786"
       id="linearGradient5788-6-0"
       x1="22.183371"
       y1="184.21223"
       x2="65.748299"
       y2="184.21223"
       gradientUnits="userSpaceOnUse"
       gradientTransform="matrix(2.191057,0,0,0.37340063,-42.920062,135.47247)" />
    <linearGradient
       inkscape:collect="always"
       xlink:href="#linearGradient5786"
       id="linearGradient5788-6-0-0"
       x1="22.183371"
       y1="184.21223"
       x2="65.748299"
       y2="184.21223"
       gradientUnits="userSpaceOnUse"
       gradientTransform="matrix(2.191057,0,0,0.37340063,60.288294,135.47249)" />
    <linearGradient
       inkscape:collect="always"
       xlink:href="#linearGradient5786"
       id="linearGradient5788-6-0-8"
       x1="22.183371"
       y1="184.21223"
       x2="65.748299"
       y2="184.21223"
       gradientUnits="userSpaceOnUse"
       gradientTransform="matrix(2.191057,0,0,0.37340063,60.288289,153.46879)" />
    <linearGradient
       inkscape:collect="always"
       xlink:href="#linearGradient5786"
       id="linearGradient5788-9"
       x1="22.183371"
       y1="184.21223"
       x2="65.748299"
       y2="184.21223"
       gradientUnits="userSpaceOnUse"
       gradientTransform="matrix(3.1280249,0,0,0.45010557,-65.229771,159.82931)" />
    <linearGradient
       inkscape:collect="always"
       xlink:href="#linearGradient5786"
       id="linearGradient5788-6-0-0-6"
       x1="22.183371"
       y1="184.21223"
       x2="65.748299"
       y2="184.21223"
       gradientUnits="userSpaceOnUse"
       gradientTransform="matrix(2.191057,0,0,0.37340063,-43.946822,194.00452)" />
    <linearGradient
       inkscape:collect="always"
       xlink:href="#linearGradient5786"
       id="linearGradient5788-9-0"
       x1="22.183371"
       y1="184.21223"
       x2="65.748299"
       y2="184.21223"
       gradientUnits="userSpaceOnUse"
       gradientTransform="matrix(2.2045455,0,0,0.39660459,-44.005285,208.17164)" />
    <linearGradient
       inkscape:collect="always"
       xlink:href="#linearGradient5786"
       id="linearGradient5788-9-0-4"
       x1="22.183371"
       y1="184.21223"
       x2="65.748299"
       y2="184.21223"
       gradientUnits="userSpaceOnUse"
       gradientTransform="matrix(2.2045455,0,0,0.39660459,-43.470749,92.711229)" />
    <linearGradient
       inkscape:collect="always"
       xlink:href="#linearGradient4651"
       id="linearGradient4653-1-50"
       x1="118.1677"
       y1="168.86755"
       x2="177.2849"
       y2="168.86755"
       gradientUnits="userSpaceOnUse"
       gradientTransform="matrix(0.00228771,0.20486896,-0.4583008,0.0132068,93.268345,143.13745)" />
    <linearGradient
       id="linearGradient4651"
       osb:paint="solid">
      <stop
         style="stop-color:#1eff36;stop-opacity:1;"
         offset="0"
         id="stop4649" />
    </linearGradient>
    <linearGradient
       inkscape:collect="always"
       xlink:href="#linearGradient4651"
       id="linearGradient4653-1-50-4"
       x1="118.1677"
       y1="168.86755"
       x2="177.2849"
       y2="168.86755"
       gradientUnits="userSpaceOnUse"
       gradientTransform="matrix(0.00228771,0.20486896,-0.45830079,0.0132068,93.336458,163.78364)" />
    <linearGradient
       inkscape:collect="always"
       xlink:href="#linearGradient4651"
       id="linearGradient4653-1-50-8"
       x1="118.1677"
       y1="168.86755"
       x2="177.2849"
       y2="168.86755"
       gradientUnits="userSpaceOnUse"
       gradientTransform="matrix(0.20457403,-0.01122463,0.03319137,0.45728806,69.032655,128.60659)" />
    <linearGradient
       inkscape:collect="always"
       xlink:href="#linearGradient4651"
       id="linearGradient4653-1-50-2"
       x1="118.1677"
       y1="168.86755"
       x2="177.2849"
       y2="168.86755"
       gradientUnits="userSpaceOnUse"
       gradientTransform="matrix(0.00228771,0.20486896,-0.45830079,0.0132068,275.8466,181.25406)" />
    <linearGradient
       inkscape:collect="always"
       xlink:href="#linearGradient4651"
       id="linearGradient4653-1-50-86"
       x1="118.1677"
       y1="168.86755"
       x2="177.2849"
       y2="168.86755"
       gradientUnits="userSpaceOnUse"
       gradientTransform="matrix(-0.12078628,0.16549078,-0.37505161,-0.26372396,224.14674,252.86885)" />
    <linearGradient
       inkscape:collect="always"
       xlink:href="#linearGradient4651"
       id="linearGradient4653-1-50-83"
       x1="118.1677"
       y1="168.86755"
       x2="177.2849"
       y2="168.86755"
       gradientUnits="userSpaceOnUse"
       gradientTransform="matrix(0.00228771,0.20486896,-0.45830079,0.0132068,87.01337,220.99365)" />
    <linearGradient
       inkscape:collect="always"
       xlink:href="#linearGradient4651"
       id="linearGradient4653-1-50-0"
       x1="118.1677"
       y1="168.86755"
       x2="177.2849"
       y2="168.86755"
       gradientUnits="userSpaceOnUse"
       gradientTransform="matrix(0.00228771,0.20486896,-0.45830079,0.0132068,87.94904,241.17039)" />
  </defs>
  <sodipodi:namedview
     id="base"
     pagecolor="#000000"
     bordercolor="#666666"
     borderopacity="1.0"
     inkscape:pageopacity="0"
     inkscape:pageshadow="2"
     inkscape:zoom="0.98994949"
     inkscape:cx="417.24027"
     inkscape:cy="267.81247"
     inkscape:document-units="mm"
     inkscape:current-layer="flowRoot5854-3-5-7-4"
     showgrid="false"
     units="px"
     inkscape:window-width="1906"
     inkscape:window-height="1049"
     inkscape:window-x="6"
     inkscape:window-y="23"
     inkscape:window-maximized="0" />
  <metadata
     id="metadata5209">
    <rdf:RDF>
      <cc:Work
         rdf:about="">
        <dc:format>image/svg+xml</dc:format>
        <dc:type
           rdf:resource="http://purl.org/dc/dcmitype/StillImage" />
        <dc:title></dc:title>
      </cc:Work>
    </rdf:RDF>
  </metadata>
  <g
     inkscape:label="Layer 1"
     inkscape:groupmode="layer"
     id="layer1"
     transform="translate(0,-151.47914)">
    <path
       style="fill:#ff0000;fill-opacity:0.26666667;stroke:url(#linearGradient5788);stroke-width:1.57529509;stroke-miterlimit:4;stroke-dasharray:3.15059003, 3.15059003;stroke-dashoffset:0"
       d="M 5.4276009,177.86081 H 101.62398 v 14.95843 H 5.4276009 Z"
       id="rect5776" />
    <g
       aria-label="rtos_mutex_lock(...);"
       transform="matrix(0.18042304,0,0,0.18537079,-5.41703,160.2822)"
       style="font-style:normal;font-weight:normal;font-size:40px;line-height:125%;font-family:sans-serif;letter-spacing:0px;word-spacing:0px;fill:#000000;fill-opacity:1;stroke:none;stroke-width:1px;stroke-linecap:butt;stroke-linejoin:miter;stroke-opacity:1"
       id="flowRoot5854-3">
      <path
         d="m 102.9668,133.37305 q -0.9375,-0.85938 -2.20703,-1.28907 -1.250004,-0.42968 -2.753911,-0.42968 -1.816406,0 -3.183593,0.64453 -1.347657,0.625 -2.089844,1.83594 -0.46875,0.74218 -0.664063,1.79687 -0.175781,1.05469 -0.175781,3.20313 v 10.07812 h -5.722656 v -21.875 h 5.722656 v 3.39844 q 0.839844,-1.875 2.578125,-2.89063 1.738281,-1.03515 4.0625,-1.03515 1.171875,0 2.285157,0.29297 1.13281,0.27343 2.14844,0.82031 z"
         style="font-style:normal;font-variant:normal;font-weight:bold;font-stretch:normal;font-family:monospace;-inkscape-font-specification:'monospace Bold';text-align:center;text-anchor:middle;fill:#ffffff;fill-opacity:1"
         id="path6119" />
      <path
         d="m 118.02539,121.12695 v 6.21094 h 7.48047 v 4.39453 h -7.48047 v 10.35156 q 0,1.46485 0.70313,2.10938 0.72265,0.625 2.38281,0.625 h 4.39453 v 4.39453 h -4.80469 q -4.92187,0 -6.66015,-1.5625 -1.73829,-1.58203 -1.73829,-5.83984 v -10.07813 h -5.58593 v -4.39453 h 5.58593 v -6.21094 z"
         style="font-style:normal;font-variant:normal;font-weight:bold;font-stretch:normal;font-family:monospace;-inkscape-font-specification:'monospace Bold';text-align:center;text-anchor:middle;fill:#ffffff;fill-opacity:1"
         id="path6121" />
      <path
         d="m 140.64258,131.45898 q -2.05078,0 -3.22266,1.81641 -1.17187,1.79688 -1.17187,5.01953 0,3.22266 1.17187,5.03906 1.17188,1.79688 3.22266,1.79688 2.07031,0 3.24219,-1.79688 1.17187,-1.8164 1.17187,-5.03906 0,-3.22265 -1.17187,-5.01953 -1.17188,-1.81641 -3.24219,-1.81641 z m -10.11719,6.83594 q 0,-5.29297 2.73438,-8.3789 2.7539,-3.10547 7.38281,-3.10547 4.64844,0 7.38281,3.10547 2.75391,3.08593 2.75391,8.3789 0,5.29297 -2.75391,8.39844 -2.73437,3.08594 -7.38281,3.08594 -4.62891,0 -7.38281,-3.08594 -2.73438,-3.10547 -2.73438,-8.39844 z"
         style="font-style:normal;font-variant:normal;font-weight:bold;font-stretch:normal;font-family:monospace;-inkscape-font-specification:'monospace Bold';text-align:center;text-anchor:middle;fill:#ffffff;fill-opacity:1"
         id="path6123" />
      <path
         d="m 172.0293,128.02148 v 5 q -1.58203,-1.01562 -3.30078,-1.52343 -1.69922,-0.52735 -3.41797,-0.52735 -1.91407,0 -2.89063,0.56641 -0.97656,0.54687 -0.97656,1.64062 0,1.5625 4.17969,2.53907 l 0.21484,0.0586 1.64063,0.39063 q 3.125,0.74218 4.57031,2.40234 1.46484,1.64062 1.46484,4.45312 0,3.37891 -2.22656,5.07813 -2.20703,1.67969 -6.66016,1.67969 -1.97265,0 -4.04297,-0.35157 -2.07031,-0.33203 -4.19921,-1.01562 v -5 q 1.89453,1.07422 3.84765,1.64062 1.97266,0.56641 3.8086,0.56641 2.01171,0 3.04687,-0.58594 1.03516,-0.58593 1.03516,-1.69922 0,-1.09375 -0.74219,-1.67968 -0.72266,-0.58594 -3.47656,-1.25 l -1.58203,-0.35157 q -3.28125,-0.74218 -4.78516,-2.32421 -1.50391,-1.58204 -1.50391,-4.23829 0,-3.16406 2.28516,-4.92187 2.28516,-1.75781 6.42578,-1.75781 1.85547,0 3.69141,0.3125 1.85547,0.29297 3.59375,0.89843 z"
         style="font-style:normal;font-variant:normal;font-weight:bold;font-stretch:normal;font-family:monospace;-inkscape-font-specification:'monospace Bold';text-align:center;text-anchor:middle;fill:#ffffff;fill-opacity:1"
         id="path6125" />
      <path
         d="m 200.81836,154.93555 v 3.71093 h -24.08203 v -3.71093 z"
         style="font-style:normal;font-variant:normal;font-weight:bold;font-stretch:normal;font-family:monospace;-inkscape-font-specification:'monospace Bold';text-align:center;text-anchor:middle;fill:#ffffff;fill-opacity:1"
         id="path6127" />
      <path
         d="m 214.27539,129.52539 q 0.64453,-1.38672 1.64063,-2.05078 0.99609,-0.66406 2.4414,-0.66406 2.83203,0 3.90625,1.95312 1.09375,1.95313 1.09375,8.125 v 12.32422 h -4.6875 v -14.04297 q 0,-2.4414 -0.37109,-3.26172 -0.3711,-0.82031 -1.34766,-0.82031 -0.97656,0 -1.36719,0.83984 -0.39062,0.83985 -0.39062,3.24219 v 14.04297 h -4.62891 v -14.04297 q 0,-2.40234 -0.39062,-3.24219 -0.39063,-0.83984 -1.36719,-0.83984 -0.97656,0 -1.34766,0.82031 -0.37109,0.82032 -0.37109,3.26172 v 14.04297 h -4.6875 v -21.875 h 4.16016 v 2.26563 q 0.48828,-1.28907 1.5625,-2.03125 1.07422,-0.76172 2.40234,-0.76172 1.32813,0 2.42188,0.80078 1.09375,0.78125 1.32812,1.91406 z"
         style="font-style:normal;font-variant:normal;font-weight:bold;font-stretch:normal;font-family:monospace;-inkscape-font-specification:'monospace Bold';text-align:center;text-anchor:middle;fill:#ffffff;fill-opacity:1"
         id="path6129" />
      <path
         d="m 227.98633,141.57617 v -14.23828 h 5.72265 v 13.35938 q 0,2.36328 0.66407,3.3789 0.66406,1.01563 2.20703,1.01563 1.54297,0 2.40234,-1.36719 0.87891,-1.36719 0.87891,-3.82813 v -12.55859 h 5.72265 v 21.875 h -5.72265 v -3.24219 q -0.60547,1.81641 -2.07031,2.8125 -1.44532,0.9961 -3.4961,0.9961 -3.125,0 -4.72656,-2.07032 -1.58203,-2.07031 -1.58203,-6.13281 z"
         style="font-style:normal;font-variant:normal;font-weight:bold;font-stretch:normal;font-family:monospace;-inkscape-font-specification:'monospace Bold';text-align:center;text-anchor:middle;fill:#ffffff;fill-opacity:1"
         id="path6131" />
      <path
         d="m 262.40039,121.12695 v 6.21094 h 7.48047 v 4.39453 h -7.48047 v 10.35156 q 0,1.46485 0.70313,2.10938 0.72265,0.625 2.38281,0.625 h 4.39453 v 4.39453 h -4.80469 q -4.92187,0 -6.66015,-1.5625 -1.73829,-1.58203 -1.73829,-5.83984 v -10.07813 h -5.58593 v -4.39453 h 5.58593 v -6.21094 z"
         style="font-style:normal;font-variant:normal;font-weight:bold;font-stretch:normal;font-family:monospace;-inkscape-font-specification:'monospace Bold';text-align:center;text-anchor:middle;fill:#ffffff;fill-opacity:1"
         id="path6133" />
      <path
         d="m 294.50977,148.13867 q -1.99219,0.82031 -4.0625,1.23047 -2.07032,0.41016 -4.375,0.41016 -5.48829,0 -8.39844,-2.92969 -2.89063,-2.94922 -2.89063,-8.47656 0,-5.35157 2.79297,-8.45703 2.79297,-3.10547 7.61719,-3.10547 4.86328,0 7.53906,2.89062 2.69531,2.8711 2.69531,8.10547 v 2.32422 h -14.82421 q 0.0195,2.57812 1.52343,3.84766 1.50391,1.26953 4.49219,1.26953 1.97266,0 3.88672,-0.56641 1.91406,-0.56641 4.00391,-1.79687 z m -4.84375,-12.30469 q -0.0391,-2.26562 -1.17188,-3.41796 -1.11328,-1.17188 -3.30078,-1.17188 -1.97266,0 -3.14453,1.21094 -1.17188,1.1914 -1.38672,3.39844 z"
         style="font-style:normal;font-variant:normal;font-weight:bold;font-stretch:normal;font-family:monospace;-inkscape-font-specification:'monospace Bold';text-align:center;text-anchor:middle;fill:#ffffff;fill-opacity:1"
         id="path6135" />
      <path
         d="m 319.41211,127.33789 -7.36328,10.46875 8.00781,11.40625 h -6.67969 l -4.29687,-7.36328 -4.27735,7.36328 h -6.67968 l 8.08593,-11.40625 -7.4414,-10.46875 h 6.67969 l 3.63281,6.52344 3.65234,-6.52344 z"
         style="font-style:normal;font-variant:normal;font-weight:bold;font-stretch:normal;font-family:monospace;-inkscape-font-specification:'monospace Bold';text-align:center;text-anchor:middle;fill:#ffffff;fill-opacity:1"
         id="path6137" />
      <path
         d="m 345.19336,154.93555 v 3.71093 h -24.08203 v -3.71093 z"
         style="font-style:normal;font-variant:normal;font-weight:bold;font-stretch:normal;font-family:monospace;-inkscape-font-specification:'monospace Bold';text-align:center;text-anchor:middle;fill:#ffffff;fill-opacity:1"
         id="path6139" />
      <path
         d="m 352.73242,140.0918 v -16.875 h -5.80078 v -4.39453 h 11.52344 v 21.26953 q 0,2.57812 0.80078,3.65234 0.80078,1.07422 2.71484,1.07422 h 4.57032 v 4.39453 h -6.17188 q -4.08203,0 -5.85937,-2.10937 -1.77735,-2.10938 -1.77735,-7.01172 z"
         style="font-style:normal;font-variant:normal;font-weight:bold;font-stretch:normal;font-family:monospace;-inkscape-font-specification:'monospace Bold';text-align:center;text-anchor:middle;fill:#ffffff;fill-opacity:1"
         id="path6141" />
      <path
         d="m 381.26758,131.45898 q -2.05078,0 -3.22266,1.81641 -1.17187,1.79688 -1.17187,5.01953 0,3.22266 1.17187,5.03906 1.17188,1.79688 3.22266,1.79688 2.07031,0 3.24219,-1.79688 1.17187,-1.8164 1.17187,-5.03906 0,-3.22265 -1.17187,-5.01953 -1.17188,-1.81641 -3.24219,-1.81641 z m -10.11719,6.83594 q 0,-5.29297 2.73438,-8.3789 2.7539,-3.10547 7.38281,-3.10547 4.64844,0 7.38281,3.10547 2.75391,3.08593 2.75391,8.3789 0,5.29297 -2.75391,8.39844 -2.73437,3.08594 -7.38281,3.08594 -4.62891,0 -7.38281,-3.08594 -2.73438,-3.10547 -2.73438,-8.39844 z"
         style="font-style:normal;font-variant:normal;font-weight:bold;font-stretch:normal;font-family:monospace;-inkscape-font-specification:'monospace Bold';text-align:center;text-anchor:middle;fill:#ffffff;fill-opacity:1"
         id="path6143" />
      <path
         d="m 414.02148,148.09961 q -1.44531,0.83984 -3.10546,1.25 -1.66016,0.42969 -3.57422,0.42969 -5.0586,0 -7.91016,-3.04688 -2.85156,-3.04687 -2.85156,-8.4375 0,-5.41015 2.87109,-8.45703 2.8711,-3.06641 7.92969,-3.06641 1.75781,0 3.37891,0.41016 1.64062,0.41016 3.26171,1.26953 v 5.23438 q -1.25,-1.07422 -2.7539,-1.64063 -1.48438,-0.58594 -3.08594,-0.58594 -2.79297,0 -4.29687,1.77735 -1.50391,1.77734 -1.50391,5.05859 0,3.28125 1.50391,5.03906 1.5039,1.75782 4.29687,1.75782 1.66016,0 3.10547,-0.54688 1.44531,-0.5664 2.73437,-1.69922 z"
         style="font-style:normal;font-variant:normal;font-weight:bold;font-stretch:normal;font-family:monospace;-inkscape-font-specification:'monospace Bold';text-align:center;text-anchor:middle;fill:#ffffff;fill-opacity:1"
         id="path6145" />
      <path
         d="m 420.75977,118.82227 h 5.72265 v 15.95703 l 6.875,-7.44141 h 6.9336 l -8.28125,8.16406 8.75,13.71094 h -6.32813 l -5.99609,-10.23437 -1.95313,1.875 v 8.35937 h -5.72265 z"
         style="font-style:normal;font-variant:normal;font-weight:bold;font-stretch:normal;font-family:monospace;-inkscape-font-specification:'monospace Bold';text-align:center;text-anchor:middle;fill:#ffffff;fill-opacity:1"
         id="path6147" />
      <path
         d="m 459.4707,118.86133 q -2.57812,4.66797 -3.82812,9.04297 -1.25,4.375 -1.25,8.75 0,4.33593 1.25,8.75 1.25,4.39453 3.82812,9.08203 h -4.45312 q -3.10547,-4.51172 -4.60938,-8.88672 -1.5039,-4.39453 -1.5039,-8.94531 0,-4.53125 1.5039,-8.92578 1.52344,-4.41407 4.60938,-8.86719 z"
         style="font-style:normal;font-variant:normal;font-weight:bold;font-stretch:normal;font-family:monospace;-inkscape-font-specification:'monospace Bold';text-align:center;text-anchor:middle;fill:#ffffff;fill-opacity:1"
         id="path6149" />
      <path
         d="m 474.25586,142.04492 h 6.50391 v 7.16797 h -6.50391 z"
         style="font-style:normal;font-variant:normal;font-weight:bold;font-stretch:normal;font-family:monospace;-inkscape-font-specification:'monospace Bold';text-align:center;text-anchor:middle;fill:#ffffff;fill-opacity:1"
         id="path6151" />
      <path
         d="m 498.31836,142.04492 h 6.50391 v 7.16797 h -6.50391 z"
         style="font-style:normal;font-variant:normal;font-weight:bold;font-stretch:normal;font-family:monospace;-inkscape-font-specification:'monospace Bold';text-align:center;text-anchor:middle;fill:#ffffff;fill-opacity:1"
         id="path6153" />
      <path
         d="m 522.38086,142.04492 h 6.50391 v 7.16797 h -6.50391 z"
         style="font-style:normal;font-variant:normal;font-weight:bold;font-stretch:normal;font-family:monospace;-inkscape-font-specification:'monospace Bold';text-align:center;text-anchor:middle;fill:#ffffff;fill-opacity:1"
         id="path6155" />
      <path
         d="m 543.70898,118.86133 h 4.45313 q 3.08594,4.45312 4.58984,8.86719 1.52344,4.39453 1.52344,8.92578 0,4.55078 -1.50391,8.94531 -1.5039,4.375 -4.60937,8.88672 h -4.45313 q 2.57813,-4.6875 3.82813,-9.08203 1.25,-4.41407 1.25,-8.75 0,-4.375 -1.25,-8.75 -1.25,-4.375 -3.82813,-9.04297 z"
         style="font-style:normal;font-variant:normal;font-weight:bold;font-stretch:normal;font-family:monospace;-inkscape-font-specification:'monospace Bold';text-align:center;text-anchor:middle;fill:#ffffff;fill-opacity:1"
         id="path6157" />
      <path
         d="m 570.50586,142.04492 h 6.50391 v 5.29297 l -3.82813,7.48047 h -4.19922 l 1.52344,-7.48047 z m 0,-13.59375 h 6.50391 v 7.12891 h -6.50391 z"
         style="font-style:normal;font-variant:normal;font-weight:bold;font-stretch:normal;font-family:monospace;-inkscape-font-specification:'monospace Bold';text-align:center;text-anchor:middle;fill:#ffffff;fill-opacity:1"
         id="path6159" />
    </g>
    <path
       style="fill:#00ff00;fill-opacity:0.20784314;stroke:url(#linearGradient5788-6-0);stroke-width:1.41556156;stroke-miterlimit:4;stroke-dasharray:2.83112286, 2.83112286;stroke-dashoffset:0"
       d="M 5.6849604,198.16971 H 101.13822 v 12.17543 H 5.6849604 Z"
       id="rect5776-9-8" />
    <g
       aria-label="rfe"
       transform="matrix(0.18042304,0,0,0.18537079,96.567514,196.971)"
       style="font-style:normal;font-weight:normal;font-size:40px;line-height:125%;font-family:sans-serif;letter-spacing:0px;word-spacing:0px;fill:#000000;fill-opacity:1;stroke:none;stroke-width:1px;stroke-linecap:butt;stroke-linejoin:miter;stroke-opacity:1"
       id="flowRoot5854-3-0">
      <path
         d="m 319.5293,133.37305 q -0.9375,-0.85938 -2.20703,-1.28907 -1.25,-0.42968 -2.75391,-0.42968 -1.81641,0 -3.18359,0.64453 -1.34766,0.625 -2.08985,1.83594 -0.46875,0.74218 -0.66406,1.79687 -0.17578,1.05469 -0.17578,3.20313 v 10.07812 h -5.72266 v -21.875 h 5.72266 v 3.39844 q 0.83984,-1.875 2.57812,-2.89063 1.73828,-1.03515 4.0625,-1.03515 1.17188,0 2.28516,0.29297 1.13281,0.27343 2.14844,0.82031 z"
         style="font-style:normal;font-variant:normal;font-weight:bold;font-stretch:normal;font-family:monospace;-inkscape-font-specification:'monospace Bold';text-align:center;text-anchor:middle;fill:#ffffff;fill-opacity:1"
         id="path6163" />
      <path
         d="m 335.54492,125.42383 v 1.91406 h 6.71875 v 4.39453 h -6.71875 v 17.48047 h -5.72265 v -17.48047 h -5.3125 v -4.39453 h 5.3125 v -1.52344 q 0,-3.94531 1.64062,-5.46875 1.64063,-1.52343 6.09375,-1.52343 h 4.70703 v 4.39453 h -4.47265 q -1.28907,0 -1.75782,0.46875 -0.44922,0.46875 -0.48828,1.73828 z"
         style="font-style:normal;font-variant:normal;font-weight:bold;font-stretch:normal;font-family:monospace;-inkscape-font-specification:'monospace Bold';text-align:center;text-anchor:middle;fill:#ffffff;fill-opacity:1"
         id="path6165" />
      <path
         d="m 366.69727,148.13867 q -1.99219,0.82031 -4.0625,1.23047 -2.07032,0.41016 -4.375,0.41016 -5.48829,0 -8.39844,-2.92969 -2.89063,-2.94922 -2.89063,-8.47656 0,-5.35157 2.79297,-8.45703 2.79297,-3.10547 7.61719,-3.10547 4.86328,0 7.53906,2.89062 2.69531,2.8711 2.69531,8.10547 v 2.32422 h -14.82421 q 0.0195,2.57812 1.52343,3.84766 1.50391,1.26953 4.49219,1.26953 1.97266,0 3.88672,-0.56641 1.91406,-0.56641 4.00391,-1.79687 z m -4.84375,-12.30469 q -0.0391,-2.26562 -1.17188,-3.41796 -1.11328,-1.17188 -3.30078,-1.17188 -1.97266,0 -3.14453,1.21094 -1.17188,1.1914 -1.38672,3.39844 z"
         style="font-style:normal;font-variant:normal;font-weight:bold;font-stretch:normal;font-family:monospace;-inkscape-font-specification:'monospace Bold';text-align:center;text-anchor:middle;fill:#ffffff;fill-opacity:1"
         id="path6167" />
    </g>
    <path
       style="fill:#00ff00;fill-opacity:0.20784314;stroke:url(#linearGradient5788-6-0-0);stroke-width:1.41556156;stroke-miterlimit:4;stroke-dasharray:2.83112289, 2.83112289;stroke-dashoffset:0"
       d="m 108.89332,198.16972 h 95.45325 v 12.17543 h -95.45325 z"
       id="rect5776-9-8-5" />
    <g
       aria-label="elevate_privileges()"
       transform="matrix(0.18042304,0,0,0.18537079,96.511585,178.62522)"
       style="font-style:normal;font-weight:normal;font-size:40px;line-height:125%;font-family:sans-serif;letter-spacing:0px;word-spacing:0px;fill:#000000;fill-opacity:1;stroke:none;stroke-width:1px;stroke-linecap:butt;stroke-linejoin:miter;stroke-opacity:1"
       id="flowRoot5854-3-0-2">
      <path
         d="m 114.04102,148.13867 q -1.99219,0.82031 -4.0625,1.23047 -2.07032,0.41016 -4.375,0.41016 -5.48829,0 -8.398442,-2.92969 -2.890625,-2.94922 -2.890625,-8.47656 0,-5.35157 2.792969,-8.45703 2.792969,-3.10547 7.617188,-3.10547 4.86328,0 7.53906,2.89062 2.69531,2.8711 2.69531,8.10547 v 2.32422 h -14.82421 q 0.0195,2.57812 1.52343,3.84766 1.50391,1.26953 4.49219,1.26953 1.97266,0 3.88672,-0.56641 1.91406,-0.56641 4.00391,-1.79687 z m -4.84375,-12.30469 q -0.0391,-2.26562 -1.17188,-3.41796 -1.11328,-1.17188 -3.30078,-1.17188 -1.97266,0 -3.14453,1.21094 -1.17188,1.1914 -1.38672,3.39844 z"
         style="font-style:normal;font-variant:normal;font-weight:bold;font-stretch:normal;font-family:monospace;-inkscape-font-specification:'monospace Bold';text-align:center;text-anchor:middle;fill:#ffffff;fill-opacity:1"
         id="path6171" />
      <path
         d="m 124.13867,140.0918 v -16.875 h -5.80078 v -4.39453 h 11.52344 v 21.26953 q 0,2.57812 0.80078,3.65234 0.80078,1.07422 2.71484,1.07422 h 4.57032 v 4.39453 h -6.17188 q -4.08203,0 -5.85937,-2.10937 -1.77735,-2.10938 -1.77735,-7.01172 z"
         style="font-style:normal;font-variant:normal;font-weight:bold;font-stretch:normal;font-family:monospace;-inkscape-font-specification:'monospace Bold';text-align:center;text-anchor:middle;fill:#ffffff;fill-opacity:1"
         id="path6173" />
      <path
         d="m 162.16602,148.13867 q -1.99219,0.82031 -4.0625,1.23047 -2.07032,0.41016 -4.375,0.41016 -5.48829,0 -8.39844,-2.92969 -2.89063,-2.94922 -2.89063,-8.47656 0,-5.35157 2.79297,-8.45703 2.79297,-3.10547 7.61719,-3.10547 4.86328,0 7.53906,2.89062 2.69531,2.8711 2.69531,8.10547 v 2.32422 h -14.82421 q 0.0195,2.57812 1.52343,3.84766 1.50391,1.26953 4.49219,1.26953 1.97266,0 3.88672,-0.56641 1.91406,-0.56641 4.00391,-1.79687 z m -4.84375,-12.30469 q -0.0391,-2.26562 -1.17188,-3.41796 -1.11328,-1.17188 -3.30078,-1.17188 -1.97266,0 -3.14453,1.21094 -1.17188,1.1914 -1.38672,3.39844 z"
         style="font-style:normal;font-variant:normal;font-weight:bold;font-stretch:normal;font-family:monospace;-inkscape-font-specification:'monospace Bold';text-align:center;text-anchor:middle;fill:#ffffff;fill-opacity:1"
         id="path6175" />
      <path
         d="m 187.22461,127.33789 -6.95313,21.875 h -7.05078 l -6.95312,-21.875 h 5.80078 l 4.66797,17.07031 4.6875,-17.07031 z"
         style="font-style:normal;font-variant:normal;font-weight:bold;font-stretch:normal;font-family:monospace;-inkscape-font-specification:'monospace Bold';text-align:center;text-anchor:middle;fill:#ffffff;fill-opacity:1"
         id="path6177" />
      <path
         d="m 202.43945,138.93945 q -3.20312,0 -4.47265,0.82032 -1.26953,0.82031 -1.26953,2.8125 0,1.48437 0.8789,2.36328 0.87891,0.8789 2.38281,0.8789 2.26563,0 3.51563,-1.69922 1.25,-1.71875 1.25,-4.78515 v -0.39063 z m 7.96875,-2.20703 v 12.48047 h -5.68359 v -2.44141 q -1.03516,1.44532 -2.65625,2.22657 -1.62109,0.78125 -3.57422,0.78125 -3.73047,0 -5.82031,-1.97266 -2.07031,-1.97266 -2.07031,-5.50781 0,-3.82813 2.48046,-5.64453 2.48047,-1.83594 7.67579,-1.83594 h 3.96484 v -0.95703 q 0,-1.38672 -1.01563,-2.08985 -0.99609,-0.72265 -2.94921,-0.72265 -2.05079,0 -3.98438,0.52734 -1.91406,0.50781 -4.00391,1.64063 v -4.88282 q 1.89454,-0.78125 3.84766,-1.15234 1.95313,-0.37109 4.14063,-0.37109 5.33203,0 7.48046,2.16797 2.16797,2.16796 2.16797,7.7539 z"
         style="font-style:normal;font-variant:normal;font-weight:bold;font-stretch:normal;font-family:monospace;-inkscape-font-specification:'monospace Bold';text-align:center;text-anchor:middle;fill:#ffffff;fill-opacity:1"
         id="path6179" />
      <path
         d="m 226.30664,121.12695 v 6.21094 h 7.48047 v 4.39453 h -7.48047 v 10.35156 q 0,1.46485 0.70313,2.10938 0.72265,0.625 2.38281,0.625 h 4.39453 v 4.39453 h -4.80469 q -4.92187,0 -6.66015,-1.5625 -1.73829,-1.58203 -1.73829,-5.83984 v -10.07813 h -5.58593 v -4.39453 h 5.58593 v -6.21094 z"
         style="font-style:normal;font-variant:normal;font-weight:bold;font-stretch:normal;font-family:monospace;-inkscape-font-specification:'monospace Bold';text-align:center;text-anchor:middle;fill:#ffffff;fill-opacity:1"
         id="path6181" />
      <path
         d="m 258.41602,148.13867 q -1.99219,0.82031 -4.0625,1.23047 -2.07032,0.41016 -4.375,0.41016 -5.48829,0 -8.39844,-2.92969 -2.89063,-2.94922 -2.89063,-8.47656 0,-5.35157 2.79297,-8.45703 2.79297,-3.10547 7.61719,-3.10547 4.86328,0 7.53906,2.89062 2.69531,2.8711 2.69531,8.10547 v 2.32422 h -14.82421 q 0.0195,2.57812 1.52343,3.84766 1.50391,1.26953 4.49219,1.26953 1.97266,0 3.88672,-0.56641 1.91406,-0.56641 4.00391,-1.79687 z m -4.84375,-12.30469 q -0.0391,-2.26562 -1.17188,-3.41796 -1.11328,-1.17188 -3.30078,-1.17188 -1.97266,0 -3.14453,1.21094 -1.17188,1.1914 -1.38672,3.39844 z"
         style="font-style:normal;font-variant:normal;font-weight:bold;font-stretch:normal;font-family:monospace;-inkscape-font-specification:'monospace Bold';text-align:center;text-anchor:middle;fill:#ffffff;fill-opacity:1"
         id="path6183" />
      <path
         d="m 285.03711,154.93555 v 3.71093 h -24.08203 v -3.71093 z"
         style="font-style:normal;font-variant:normal;font-weight:bold;font-stretch:normal;font-family:monospace;-inkscape-font-specification:'monospace Bold';text-align:center;text-anchor:middle;fill:#ffffff;fill-opacity:1"
         id="path6185" />
      <path
         d="m 293.65039,146.12695 v 11.40625 h -5.70312 v -30.19531 h 5.70312 v 3.28125 q 0.89844,-1.89453 2.36328,-2.85156 1.46485,-0.95703 3.4375,-0.95703 3.75,0 5.82031,3.00781 2.07032,3.00781 2.07032,8.47656 0,5.54688 -2.10938,8.51563 -2.08984,2.96875 -5.97656,2.96875 -1.75781,0 -3.16406,-0.89844 -1.38672,-0.91797 -2.44141,-2.75391 z m 7.96875,-7.87109 q 0,-3.16406 -1.05469,-4.96094 -1.05468,-1.79687 -2.91015,-1.79687 -1.85547,0 -2.92969,1.79687 -1.07422,1.79688 -1.07422,4.96094 0,3.16406 1.07422,4.96094 1.07422,1.79687 2.92969,1.79687 1.85547,0 2.91015,-1.79687 1.05469,-1.79688 1.05469,-4.96094 z"
         style="font-style:normal;font-variant:normal;font-weight:bold;font-stretch:normal;font-family:monospace;-inkscape-font-specification:'monospace Bold';text-align:center;text-anchor:middle;fill:#ffffff;fill-opacity:1"
         id="path6187" />
      <path
         d="m 331.56055,133.37305 q -0.9375,-0.85938 -2.20703,-1.28907 -1.25,-0.42968 -2.75391,-0.42968 -1.81641,0 -3.18359,0.64453 -1.34766,0.625 -2.08985,1.83594 -0.46875,0.74218 -0.66406,1.79687 -0.17578,1.05469 -0.17578,3.20313 v 10.07812 h -5.72266 v -21.875 h 5.72266 v 3.39844 q 0.83984,-1.875 2.57812,-2.89063 1.73828,-1.03515 4.0625,-1.03515 1.17188,0 2.28516,0.29297 1.13281,0.27343 2.14844,0.82031 z"
         style="font-style:normal;font-variant:normal;font-weight:bold;font-stretch:normal;font-family:monospace;-inkscape-font-specification:'monospace Bold';text-align:center;text-anchor:middle;fill:#ffffff;fill-opacity:1"
         id="path6189" />
      <path
         d="m 337.45898,127.33789 h 11.32813 v 17.48047 h 7.10937 v 4.39453 h -19.96093 v -4.39453 h 7.1289 v -13.08594 h -5.60547 z m 5.60547,-10.64453 h 5.72266 v 6.67969 h -5.72266 z"
         style="font-style:normal;font-variant:normal;font-weight:bold;font-stretch:normal;font-family:monospace;-inkscape-font-specification:'monospace Bold';text-align:center;text-anchor:middle;fill:#ffffff;fill-opacity:1"
         id="path6191" />
      <path
         d="m 379.72461,127.33789 -6.95313,21.875 h -7.05078 l -6.95312,-21.875 h 5.80078 l 4.66797,17.07031 4.6875,-17.07031 z"
         style="font-style:normal;font-variant:normal;font-weight:bold;font-stretch:normal;font-family:monospace;-inkscape-font-specification:'monospace Bold';text-align:center;text-anchor:middle;fill:#ffffff;fill-opacity:1"
         id="path6193" />
      <path
         d="m 385.58398,127.33789 h 11.32813 v 17.48047 h 7.10937 v 4.39453 h -19.96093 v -4.39453 h 7.1289 v -13.08594 h -5.60547 z m 5.60547,-10.64453 h 5.72266 v 6.67969 h -5.72266 z"
         style="font-style:normal;font-variant:normal;font-weight:bold;font-stretch:normal;font-family:monospace;-inkscape-font-specification:'monospace Bold';text-align:center;text-anchor:middle;fill:#ffffff;fill-opacity:1"
         id="path6195" />
      <path
         d="m 412.88867,140.0918 v -16.875 h -5.80078 v -4.39453 h 11.52344 v 21.26953 q 0,2.57812 0.80078,3.65234 0.80078,1.07422 2.71484,1.07422 h 4.57032 v 4.39453 h -6.17188 q -4.08203,0 -5.85937,-2.10937 -1.77735,-2.10938 -1.77735,-7.01172 z"
         style="font-style:normal;font-variant:normal;font-weight:bold;font-stretch:normal;font-family:monospace;-inkscape-font-specification:'monospace Bold';text-align:center;text-anchor:middle;fill:#ffffff;fill-opacity:1"
         id="path6197" />
      <path
         d="m 450.91602,148.13867 q -1.99219,0.82031 -4.0625,1.23047 -2.07032,0.41016 -4.375,0.41016 -5.48829,0 -8.39844,-2.92969 -2.89063,-2.94922 -2.89063,-8.47656 0,-5.35157 2.79297,-8.45703 2.79297,-3.10547 7.61719,-3.10547 4.86328,0 7.53906,2.89062 2.69531,2.8711 2.69531,8.10547 v 2.32422 h -14.82421 q 0.0195,2.57812 1.52343,3.84766 1.50391,1.26953 4.49219,1.26953 1.97266,0 3.88672,-0.56641 1.91406,-0.56641 4.00391,-1.79687 z m -4.84375,-12.30469 q -0.0391,-2.26562 -1.17188,-3.41796 -1.11328,-1.17188 -3.30078,-1.17188 -1.97266,0 -3.14453,1.21094 -1.17188,1.1914 -1.38672,3.39844 z"
         style="font-style:normal;font-variant:normal;font-weight:bold;font-stretch:normal;font-family:monospace;-inkscape-font-specification:'monospace Bold';text-align:center;text-anchor:middle;fill:#ffffff;fill-opacity:1"
         id="path6199" />
      <path
         d="m 469.13867,137.92383 q 0,-2.92969 -1.11328,-4.6875 -1.11328,-1.77735 -2.92969,-1.77735 -1.79687,0 -2.91015,1.75782 -1.09375,1.75781 -1.09375,4.70703 0,2.96875 1.09375,4.72656 1.11328,1.75781 2.91015,1.75781 1.81641,0 2.92969,-1.75781 1.11328,-1.77734 1.11328,-4.72656 z m 5.72266,9.64844 q 0,5.2539 -2.38281,7.57812 -2.36329,2.34375 -7.69532,2.34375 -1.79687,0 -3.55468,-0.27344 -1.75782,-0.2539 -3.57422,-0.80078 v -5.2539 q 1.62109,0.89843 3.30078,1.32812 1.67969,0.42969 3.45703,0.42969 2.42187,0 3.57422,-1.15235 1.15234,-1.13281 1.15234,-3.55468 v -2.36328 q -0.83984,1.5625 -2.22656,2.32421 -1.38672,0.76172 -3.37891,0.76172 -3.75,0 -5.95703,-2.92968 -2.20703,-2.92969 -2.20703,-7.94922 0,-5.19532 2.20703,-8.24219 2.20703,-3.04688 5.91797,-3.04688 1.875,0 3.33984,0.87891 1.46485,0.87891 2.30469,2.48047 v -2.79297 h 5.72266 z"
         style="font-style:normal;font-variant:normal;font-weight:bold;font-stretch:normal;font-family:monospace;-inkscape-font-specification:'monospace Bold';text-align:center;text-anchor:middle;fill:#ffffff;fill-opacity:1"
         id="path6201" />
      <path
         d="m 499.04102,148.13867 q -1.99219,0.82031 -4.0625,1.23047 -2.07032,0.41016 -4.375,0.41016 -5.48829,0 -8.39844,-2.92969 -2.89063,-2.94922 -2.89063,-8.47656 0,-5.35157 2.79297,-8.45703 2.79297,-3.10547 7.61719,-3.10547 4.86328,0 7.53906,2.89062 2.69531,2.8711 2.69531,8.10547 v 2.32422 h -14.82421 q 0.0195,2.57812 1.52343,3.84766 1.50391,1.26953 4.49219,1.26953 1.97266,0 3.88672,-0.56641 1.91406,-0.56641 4.00391,-1.79687 z m -4.84375,-12.30469 q -0.0391,-2.26562 -1.17188,-3.41796 -1.11328,-1.17188 -3.30078,-1.17188 -1.97266,0 -3.14453,1.21094 -1.17188,1.1914 -1.38672,3.39844 z"
         style="font-style:normal;font-variant:normal;font-weight:bold;font-stretch:normal;font-family:monospace;-inkscape-font-specification:'monospace Bold';text-align:center;text-anchor:middle;fill:#ffffff;fill-opacity:1"
         id="path6203" />
      <path
         d="m 520.93555,128.02148 v 5 q -1.58203,-1.01562 -3.30078,-1.52343 -1.69922,-0.52735 -3.41797,-0.52735 -1.91407,0 -2.89063,0.56641 -0.97656,0.54687 -0.97656,1.64062 0,1.5625 4.17969,2.53907 l 0.21484,0.0586 1.64063,0.39063 q 3.125,0.74218 4.57031,2.40234 1.46484,1.64062 1.46484,4.45312 0,3.37891 -2.22656,5.07813 -2.20703,1.67969 -6.66016,1.67969 -1.97265,0 -4.04297,-0.35157 -2.07031,-0.33203 -4.19921,-1.01562 v -5 q 1.89453,1.07422 3.84765,1.64062 1.97266,0.56641 3.8086,0.56641 2.01171,0 3.04687,-0.58594 1.03516,-0.58593 1.03516,-1.69922 0,-1.09375 -0.74219,-1.67968 -0.72266,-0.58594 -3.47656,-1.25 l -1.58203,-0.35157 q -3.28125,-0.74218 -4.78516,-2.32421 -1.50391,-1.58204 -1.50391,-4.23829 0,-3.16406 2.28516,-4.92187 2.28516,-1.75781 6.42578,-1.75781 1.85547,0 3.69141,0.3125 1.85547,0.29297 3.59375,0.89843 z"
         style="font-style:normal;font-variant:normal;font-weight:bold;font-stretch:normal;font-family:monospace;-inkscape-font-specification:'monospace Bold';text-align:center;text-anchor:middle;fill:#ffffff;fill-opacity:1"
         id="path6205" />
      <path
         d="m 543.68945,118.86133 q -2.57812,4.66797 -3.82812,9.04297 -1.25,4.375 -1.25,8.75 0,4.33593 1.25,8.75 1.25,4.39453 3.82812,9.08203 h -4.45312 q -3.10547,-4.51172 -4.60938,-8.88672 -1.5039,-4.39453 -1.5039,-8.94531 0,-4.53125 1.5039,-8.92578 1.52344,-4.41407 4.60938,-8.86719 z"
         style="font-style:normal;font-variant:normal;font-weight:bold;font-stretch:normal;font-family:monospace;-inkscape-font-specification:'monospace Bold';text-align:center;text-anchor:middle;fill:#ffffff;fill-opacity:1"
         id="path6207" />
      <path
         d="m 555.74023,118.86133 h 4.45313 q 3.08594,4.45312 4.58984,8.86719 1.52344,4.39453 1.52344,8.92578 0,4.55078 -1.50391,8.94531 -1.5039,4.375 -4.60937,8.88672 h -4.45313 q 2.57813,-4.6875 3.82813,-9.08203 1.25,-4.41407 1.25,-8.75 0,-4.375 -1.25,-8.75 -1.25,-4.375 -3.82813,-9.04297 z"
         style="font-style:normal;font-variant:normal;font-weight:bold;font-stretch:normal;font-family:monospace;-inkscape-font-specification:'monospace Bold';text-align:center;text-anchor:middle;fill:#ffffff;fill-opacity:1"
         id="path6209" />
    </g>
    <path
       style="fill:#00ff00;fill-opacity:0.20784314;stroke:url(#linearGradient5788-6-0-8);stroke-width:1.41556156;stroke-miterlimit:4;stroke-dasharray:2.83112289, 2.83112289;stroke-dashoffset:0"
       d="m 108.89332,216.16591 h 95.45325 v 12.17543 h -95.45325 z"
       id="rect5776-9-8-8" />
    <g
       aria-label="svc"
       transform="matrix(0.18042304,0,0,0.18537079,-5.8526444,178.90323)"
       style="font-style:normal;font-weight:normal;font-size:40px;line-height:125%;font-family:sans-serif;letter-spacing:0px;word-spacing:0px;fill:#000000;fill-opacity:1;stroke:none;stroke-width:1px;stroke-linecap:butt;stroke-linejoin:miter;stroke-opacity:1"
       id="flowRoot5854-3-0-0">
      <path
         d="m 316.4043,128.02148 v 5 q -1.58203,-1.01562 -3.30078,-1.52343 -1.69922,-0.52735 -3.41797,-0.52735 -1.91407,0 -2.89063,0.56641 -0.97656,0.54687 -0.97656,1.64062 0,1.5625 4.17969,2.53907 l 0.21484,0.0586 1.64063,0.39063 q 3.125,0.74218 4.57031,2.40234 1.46484,1.64062 1.46484,4.45312 0,3.37891 -2.22656,5.07813 -2.20703,1.67969 -6.66016,1.67969 -1.97265,0 -4.04297,-0.35157 -2.07031,-0.33203 -4.19921,-1.01562 v -5 q 1.89453,1.07422 3.84765,1.64062 1.97266,0.56641 3.8086,0.56641 2.01171,0 3.04687,-0.58594 1.03516,-0.58593 1.03516,-1.69922 0,-1.09375 -0.74219,-1.67968 -0.72266,-0.58594 -3.47656,-1.25 l -1.58203,-0.35157 q -3.28125,-0.74218 -4.78516,-2.32421 -1.50391,-1.58204 -1.50391,-4.23829 0,-3.16406 2.28516,-4.92187 2.28516,-1.75781 6.42578,-1.75781 1.85547,0 3.69141,0.3125 1.85547,0.29297 3.59375,0.89843 z"
         style="font-style:normal;font-variant:normal;font-weight:bold;font-stretch:normal;font-family:monospace;-inkscape-font-specification:'monospace Bold';text-align:center;text-anchor:middle;fill:#ffffff;fill-opacity:1"
         id="path6213" />
      <path
         d="m 343.63086,127.33789 -6.95313,21.875 h -7.05078 l -6.95312,-21.875 h 5.80078 l 4.66797,17.07031 4.6875,-17.07031 z"
         style="font-style:normal;font-variant:normal;font-weight:bold;font-stretch:normal;font-family:monospace;-inkscape-font-specification:'monospace Bold';text-align:center;text-anchor:middle;fill:#ffffff;fill-opacity:1"
         id="path6215" />
      <path
         d="m 365.89648,148.09961 q -1.44531,0.83984 -3.10546,1.25 -1.66016,0.42969 -3.57422,0.42969 -5.0586,0 -7.91016,-3.04688 -2.85156,-3.04687 -2.85156,-8.4375 0,-5.41015 2.87109,-8.45703 2.8711,-3.06641 7.92969,-3.06641 1.75781,0 3.37891,0.41016 1.64062,0.41016 3.26171,1.26953 v 5.23438 q -1.25,-1.07422 -2.7539,-1.64063 -1.48438,-0.58594 -3.08594,-0.58594 -2.79297,0 -4.29687,1.77735 -1.50391,1.77734 -1.50391,5.05859 0,3.28125 1.50391,5.03906 1.5039,1.75782 4.29687,1.75782 1.66016,0 3.10547,-0.54688 1.44531,-0.5664 2.73437,-1.69922 z"
         style="font-style:normal;font-variant:normal;font-weight:bold;font-stretch:normal;font-family:monospace;-inkscape-font-specification:'monospace Bold';text-align:center;text-anchor:middle;fill:#ffffff;fill-opacity:1"
         id="path6217" />
    </g>
    <path
       style="fill:#ff0000;fill-opacity:0.26666667;stroke:url(#linearGradient5788-9);stroke-width:1.85718441;stroke-miterlimit:4;stroke-dasharray:3.71436856, 3.71436856;stroke-dashoffset:0"
       d="M 4.1603127,235.40599 H 140.4325 v 14.67654 H 4.1603127 Z"
       id="rect5776-2" />
    <g
       aria-label="rtos_internal_mutex_lock(...);"
       transform="matrix(0.18042304,0,0,0.18537079,-7.3598015,217.15188)"
       style="font-style:normal;font-weight:normal;font-size:40px;line-height:125%;font-family:sans-serif;letter-spacing:0px;word-spacing:0px;fill:#000000;fill-opacity:1;stroke:none;stroke-width:1px;stroke-linecap:butt;stroke-linejoin:miter;stroke-opacity:1"
       id="flowRoot5854-3-5">
      <path
         d="m 106.52734,133.37305 q -0.9375,-0.85938 -2.20703,-1.28907 -1.25,-0.42968 -2.7539,-0.42968 -1.81641,0 -3.183598,0.64453 -1.347656,0.625 -2.089843,1.83594 -0.46875,0.74218 -0.664063,1.79687 -0.175781,1.05469 -0.175781,3.20313 v 10.07812 h -5.722656 v -21.875 h 5.722656 v 3.39844 q 0.839844,-1.875 2.578125,-2.89063 1.738281,-1.03515 4.0625,-1.03515 1.17188,0 2.28516,0.29297 1.13281,0.27343 2.14843,0.82031 z"
         style="font-style:normal;font-variant:normal;font-weight:bold;font-stretch:normal;font-family:monospace;-inkscape-font-specification:'monospace Bold';text-align:center;text-anchor:middle;fill:#ffffff;fill-opacity:1"
         id="path6221" />
      <path
         d="m 121.58594,121.12695 v 6.21094 h 7.48047 v 4.39453 h -7.48047 v 10.35156 q 0,1.46485 0.70312,2.10938 0.72266,0.625 2.38282,0.625 h 4.39453 v 4.39453 h -4.80469 q -4.92188,0 -6.66016,-1.5625 -1.73828,-1.58203 -1.73828,-5.83984 v -10.07813 h -5.58594 v -4.39453 h 5.58594 v -6.21094 z"
         style="font-style:normal;font-variant:normal;font-weight:bold;font-stretch:normal;font-family:monospace;-inkscape-font-specification:'monospace Bold';text-align:center;text-anchor:middle;fill:#ffffff;fill-opacity:1"
         id="path6223" />
      <path
         d="m 144.20312,131.45898 q -2.05078,0 -3.22265,1.81641 -1.17188,1.79688 -1.17188,5.01953 0,3.22266 1.17188,5.03906 1.17187,1.79688 3.22265,1.79688 2.07032,0 3.24219,-1.79688 1.17188,-1.8164 1.17188,-5.03906 0,-3.22265 -1.17188,-5.01953 -1.17187,-1.81641 -3.24219,-1.81641 z m -10.11718,6.83594 q 0,-5.29297 2.73437,-8.3789 2.75391,-3.10547 7.38281,-3.10547 4.64844,0 7.38282,3.10547 2.7539,3.08593 2.7539,8.3789 0,5.29297 -2.7539,8.39844 -2.73438,3.08594 -7.38282,3.08594 -4.6289,0 -7.38281,-3.08594 -2.73437,-3.10547 -2.73437,-8.39844 z"
         style="font-style:normal;font-variant:normal;font-weight:bold;font-stretch:normal;font-family:monospace;-inkscape-font-specification:'monospace Bold';text-align:center;text-anchor:middle;fill:#ffffff;fill-opacity:1"
         id="path6225" />
      <path
         d="m 175.58984,128.02148 v 5 q -1.58203,-1.01562 -3.30078,-1.52343 -1.69922,-0.52735 -3.41797,-0.52735 -1.91406,0 -2.89062,0.56641 -0.97656,0.54687 -0.97656,1.64062 0,1.5625 4.17968,2.53907 l 0.21485,0.0586 1.64062,0.39063 q 3.125,0.74218 4.57031,2.40234 1.46485,1.64062 1.46485,4.45312 0,3.37891 -2.22656,5.07813 -2.20704,1.67969 -6.66016,1.67969 -1.97266,0 -4.04297,-0.35157 -2.07031,-0.33203 -4.19922,-1.01562 v -5 q 1.89453,1.07422 3.84766,1.64062 1.97265,0.56641 3.80859,0.56641 2.01172,0 3.04688,-0.58594 1.03515,-0.58593 1.03515,-1.69922 0,-1.09375 -0.74218,-1.67968 -0.72266,-0.58594 -3.47657,-1.25 l -1.58203,-0.35157 q -3.28125,-0.74218 -4.78515,-2.32421 -1.50391,-1.58204 -1.50391,-4.23829 0,-3.16406 2.28516,-4.92187 2.28515,-1.75781 6.42578,-1.75781 1.85547,0 3.6914,0.3125 1.85547,0.29297 3.59375,0.89843 z"
         style="font-style:normal;font-variant:normal;font-weight:bold;font-stretch:normal;font-family:monospace;-inkscape-font-specification:'monospace Bold';text-align:center;text-anchor:middle;fill:#ffffff;fill-opacity:1"
         id="path6227" />
      <path
         d="m 204.37891,154.93555 v 3.71093 h -24.08204 v -3.71093 z"
         style="font-style:normal;font-variant:normal;font-weight:bold;font-stretch:normal;font-family:monospace;-inkscape-font-specification:'monospace Bold';text-align:center;text-anchor:middle;fill:#ffffff;fill-opacity:1"
         id="path6229" />
      <path
         d="m 208.67578,127.33789 h 11.32813 v 17.48047 h 7.10937 v 4.39453 h -19.96094 v -4.39453 h 7.12891 v -13.08594 h -5.60547 z m 5.60547,-10.64453 h 5.72266 v 6.67969 h -5.72266 z"
         style="font-style:normal;font-variant:normal;font-weight:bold;font-stretch:normal;font-family:monospace;-inkscape-font-specification:'monospace Bold';text-align:center;text-anchor:middle;fill:#ffffff;fill-opacity:1"
         id="path6231" />
      <path
         d="m 249.33984,135.01367 v 14.19922 h -5.68359 v -13.32031 q 0,-2.38281 -0.68359,-3.39844 -0.66407,-1.03516 -2.1875,-1.03516 -1.54297,0 -2.44141,1.38672 -0.87891,1.38672 -0.87891,3.84766 v 12.51953 h -5.68359 v -21.875 h 5.68359 v 3.28125 q 0.60547,-1.81641 2.07032,-2.8125 1.46484,-0.99609 3.53515,-0.99609 3.10547,0 4.6875,2.07031 1.58203,2.05078 1.58203,6.13281 z"
         style="font-style:normal;font-variant:normal;font-weight:bold;font-stretch:normal;font-family:monospace;-inkscape-font-specification:'monospace Bold';text-align:center;text-anchor:middle;fill:#ffffff;fill-opacity:1"
         id="path6233" />
      <path
         d="m 265.96094,121.12695 v 6.21094 h 7.48047 v 4.39453 h -7.48047 v 10.35156 q 0,1.46485 0.70312,2.10938 0.72266,0.625 2.38281,0.625 h 4.39454 v 4.39453 h -4.80469 q -4.92188,0 -6.66016,-1.5625 -1.73828,-1.58203 -1.73828,-5.83984 v -10.07813 h -5.58594 v -4.39453 h 5.58594 v -6.21094 z"
         style="font-style:normal;font-variant:normal;font-weight:bold;font-stretch:normal;font-family:monospace;-inkscape-font-specification:'monospace Bold';text-align:center;text-anchor:middle;fill:#ffffff;fill-opacity:1"
         id="path6235" />
      <path
         d="m 298.07031,148.13867 q -1.99219,0.82031 -4.0625,1.23047 -2.07031,0.41016 -4.375,0.41016 -5.48828,0 -8.39844,-2.92969 -2.89062,-2.94922 -2.89062,-8.47656 0,-5.35157 2.79297,-8.45703 2.79297,-3.10547 7.61719,-3.10547 4.86328,0 7.53906,2.89062 2.69531,2.8711 2.69531,8.10547 v 2.32422 h -14.82422 q 0.0195,2.57812 1.52344,3.84766 1.50391,1.26953 4.49219,1.26953 1.97265,0 3.88672,-0.56641 1.91406,-0.56641 4.0039,-1.79687 z m -4.84375,-12.30469 q -0.0391,-2.26562 -1.17187,-3.41796 -1.11328,-1.17188 -3.30078,-1.17188 -1.97266,0 -3.14454,1.21094 -1.17187,1.1914 -1.38671,3.39844 z"
         style="font-style:normal;font-variant:normal;font-weight:bold;font-stretch:normal;font-family:monospace;-inkscape-font-specification:'monospace Bold';text-align:center;text-anchor:middle;fill:#ffffff;fill-opacity:1"
         id="path6237" />
      <path
         d="m 323.08984,133.37305 q -0.9375,-0.85938 -2.20703,-1.28907 -1.25,-0.42968 -2.7539,-0.42968 -1.81641,0 -3.1836,0.64453 -1.34765,0.625 -2.08984,1.83594 -0.46875,0.74218 -0.66406,1.79687 -0.17579,1.05469 -0.17579,3.20313 v 10.07812 h -5.72265 v -21.875 h 5.72265 v 3.39844 q 0.83985,-1.875 2.57813,-2.89063 1.73828,-1.03515 4.0625,-1.03515 1.17187,0 2.28516,0.29297 1.13281,0.27343 2.14843,0.82031 z"
         style="font-style:normal;font-variant:normal;font-weight:bold;font-stretch:normal;font-family:monospace;-inkscape-font-specification:'monospace Bold';text-align:center;text-anchor:middle;fill:#ffffff;fill-opacity:1"
         id="path6239" />
      <path
         d="m 345.58984,135.01367 v 14.19922 h -5.68359 v -13.32031 q 0,-2.38281 -0.68359,-3.39844 -0.66407,-1.03516 -2.1875,-1.03516 -1.54297,0 -2.44141,1.38672 -0.87891,1.38672 -0.87891,3.84766 v 12.51953 h -5.68359 v -21.875 h 5.68359 v 3.28125 q 0.60547,-1.81641 2.07032,-2.8125 1.46484,-0.99609 3.53515,-0.99609 3.10547,0 4.6875,2.07031 1.58203,2.05078 1.58203,6.13281 z"
         style="font-style:normal;font-variant:normal;font-weight:bold;font-stretch:normal;font-family:monospace;-inkscape-font-specification:'monospace Bold';text-align:center;text-anchor:middle;fill:#ffffff;fill-opacity:1"
         id="path6241" />
      <path
         d="m 362.40625,138.93945 q -3.20313,0 -4.47266,0.82032 -1.26953,0.82031 -1.26953,2.8125 0,1.48437 0.87891,2.36328 0.8789,0.8789 2.38281,0.8789 2.26563,0 3.51563,-1.69922 1.25,-1.71875 1.25,-4.78515 v -0.39063 z m 7.96875,-2.20703 v 12.48047 h -5.68359 v -2.44141 q -1.03516,1.44532 -2.65625,2.22657 -1.6211,0.78125 -3.57422,0.78125 -3.73047,0 -5.82032,-1.97266 -2.07031,-1.97266 -2.07031,-5.50781 0,-3.82813 2.48047,-5.64453 2.48047,-1.83594 7.67578,-1.83594 h 3.96485 v -0.95703 q 0,-1.38672 -1.01563,-2.08985 -0.99609,-0.72265 -2.94922,-0.72265 -2.05078,0 -3.98437,0.52734 -1.91407,0.50781 -4.00391,1.64063 v -4.88282 q 1.89453,-0.78125 3.84766,-1.15234 1.95312,-0.37109 4.14062,-0.37109 5.33203,0 7.48047,2.16797 2.16797,2.16796 2.16797,7.7539 z"
         style="font-style:normal;font-variant:normal;font-weight:bold;font-stretch:normal;font-family:monospace;-inkscape-font-specification:'monospace Bold';text-align:center;text-anchor:middle;fill:#ffffff;fill-opacity:1"
         id="path6243" />
      <path
         d="m 380.35547,140.0918 v -16.875 h -5.80078 v -4.39453 h 11.52343 v 21.26953 q 0,2.57812 0.80079,3.65234 0.80078,1.07422 2.71484,1.07422 h 4.57031 v 4.39453 h -6.17187 q -4.08203,0 -5.85938,-2.10937 -1.77734,-2.10938 -1.77734,-7.01172 z"
         style="font-style:normal;font-variant:normal;font-weight:bold;font-stretch:normal;font-family:monospace;-inkscape-font-specification:'monospace Bold';text-align:center;text-anchor:middle;fill:#ffffff;fill-opacity:1"
         id="path6245" />
      <path
         d="m 420.94141,154.93555 v 3.71093 h -24.08204 v -3.71093 z"
         style="font-style:normal;font-variant:normal;font-weight:bold;font-stretch:normal;font-family:monospace;-inkscape-font-specification:'monospace Bold';text-align:center;text-anchor:middle;fill:#ffffff;fill-opacity:1"
         id="path6247" />
      <path
         d="m 434.39844,129.52539 q 0.64453,-1.38672 1.64062,-2.05078 0.9961,-0.66406 2.44141,-0.66406 2.83203,0 3.90625,1.95312 1.09375,1.95313 1.09375,8.125 v 12.32422 h -4.6875 v -14.04297 q 0,-2.4414 -0.3711,-3.26172 -0.37109,-0.82031 -1.34765,-0.82031 -0.97656,0 -1.36719,0.83984 -0.39062,0.83985 -0.39062,3.24219 v 14.04297 h -4.62891 v -14.04297 q 0,-2.40234 -0.39063,-3.24219 -0.39062,-0.83984 -1.36718,-0.83984 -0.97657,0 -1.34766,0.82031 -0.37109,0.82032 -0.37109,3.26172 v 14.04297 h -4.6875 v -21.875 h 4.16015 v 2.26563 q 0.48828,-1.28907 1.5625,-2.03125 1.07422,-0.76172 2.40235,-0.76172 1.32812,0 2.42187,0.80078 1.09375,0.78125 1.32813,1.91406 z"
         style="font-style:normal;font-variant:normal;font-weight:bold;font-stretch:normal;font-family:monospace;-inkscape-font-specification:'monospace Bold';text-align:center;text-anchor:middle;fill:#ffffff;fill-opacity:1"
         id="path6249" />
      <path
         d="m 448.10937,141.57617 v -14.23828 h 5.72266 v 13.35938 q 0,2.36328 0.66406,3.3789 0.66407,1.01563 2.20703,1.01563 1.54297,0 2.40235,-1.36719 0.8789,-1.36719 0.8789,-3.82813 v -12.55859 h 5.72266 v 21.875 h -5.72266 v -3.24219 q -0.60546,1.81641 -2.07031,2.8125 -1.44531,0.9961 -3.49609,0.9961 -3.125,0 -4.72656,-2.07032 -1.58204,-2.07031 -1.58204,-6.13281 z"
         style="font-style:normal;font-variant:normal;font-weight:bold;font-stretch:normal;font-family:monospace;-inkscape-font-specification:'monospace Bold';text-align:center;text-anchor:middle;fill:#ffffff;fill-opacity:1"
         id="path6251" />
      <path
         d="m 482.52344,121.12695 v 6.21094 h 7.48047 v 4.39453 h -7.48047 v 10.35156 q 0,1.46485 0.70312,2.10938 0.72266,0.625 2.38281,0.625 h 4.39454 v 4.39453 h -4.80469 q -4.92188,0 -6.66016,-1.5625 -1.73828,-1.58203 -1.73828,-5.83984 v -10.07813 h -5.58594 v -4.39453 h 5.58594 v -6.21094 z"
         style="font-style:normal;font-variant:normal;font-weight:bold;font-stretch:normal;font-family:monospace;-inkscape-font-specification:'monospace Bold';text-align:center;text-anchor:middle;fill:#ffffff;fill-opacity:1"
         id="path6253" />
      <path
         d="m 514.63281,148.13867 q -1.99219,0.82031 -4.0625,1.23047 -2.07031,0.41016 -4.375,0.41016 -5.48828,0 -8.39844,-2.92969 -2.89062,-2.94922 -2.89062,-8.47656 0,-5.35157 2.79297,-8.45703 2.79297,-3.10547 7.61719,-3.10547 4.86328,0 7.53906,2.89062 2.69531,2.8711 2.69531,8.10547 v 2.32422 h -14.82422 q 0.0195,2.57812 1.52344,3.84766 1.50391,1.26953 4.49219,1.26953 1.97265,0 3.88672,-0.56641 1.91406,-0.56641 4.0039,-1.79687 z m -4.84375,-12.30469 q -0.0391,-2.26562 -1.17187,-3.41796 -1.11328,-1.17188 -3.30078,-1.17188 -1.97266,0 -3.14454,1.21094 -1.17187,1.1914 -1.38671,3.39844 z"
         style="font-style:normal;font-variant:normal;font-weight:bold;font-stretch:normal;font-family:monospace;-inkscape-font-specification:'monospace Bold';text-align:center;text-anchor:middle;fill:#ffffff;fill-opacity:1"
         id="path6255" />
      <path
         d="m 539.53516,127.33789 -7.36329,10.46875 8.00782,11.40625 H 533.5 l -4.29688,-7.36328 -4.27734,7.36328 h -6.67969 l 8.08594,-11.40625 -7.44141,-10.46875 h 6.67969 l 3.63281,6.52344 3.65235,-6.52344 z"
         style="font-style:normal;font-variant:normal;font-weight:bold;font-stretch:normal;font-family:monospace;-inkscape-font-specification:'monospace Bold';text-align:center;text-anchor:middle;fill:#ffffff;fill-opacity:1"
         id="path6257" />
      <path
         d="m 565.31641,154.93555 v 3.71093 h -24.08204 v -3.71093 z"
         style="font-style:normal;font-variant:normal;font-weight:bold;font-stretch:normal;font-family:monospace;-inkscape-font-specification:'monospace Bold';text-align:center;text-anchor:middle;fill:#ffffff;fill-opacity:1"
         id="path6259" />
      <path
         d="m 572.85547,140.0918 v -16.875 h -5.80078 v -4.39453 h 11.52343 v 21.26953 q 0,2.57812 0.80079,3.65234 0.80078,1.07422 2.71484,1.07422 h 4.57031 v 4.39453 h -6.17187 q -4.08203,0 -5.85938,-2.10937 -1.77734,-2.10938 -1.77734,-7.01172 z"
         style="font-style:normal;font-variant:normal;font-weight:bold;font-stretch:normal;font-family:monospace;-inkscape-font-specification:'monospace Bold';text-align:center;text-anchor:middle;fill:#ffffff;fill-opacity:1"
         id="path6261" />
      <path
         d="m 601.39062,131.45898 q -2.05078,0 -3.22265,1.81641 -1.17188,1.79688 -1.17188,5.01953 0,3.22266 1.17188,5.03906 1.17187,1.79688 3.22265,1.79688 2.07032,0 3.24219,-1.79688 1.17188,-1.8164 1.17188,-5.03906 0,-3.22265 -1.17188,-5.01953 -1.17187,-1.81641 -3.24219,-1.81641 z m -10.11718,6.83594 q 0,-5.29297 2.73437,-8.3789 2.75391,-3.10547 7.38281,-3.10547 4.64844,0 7.38282,3.10547 2.7539,3.08593 2.7539,8.3789 0,5.29297 -2.7539,8.39844 -2.73438,3.08594 -7.38282,3.08594 -4.6289,0 -7.38281,-3.08594 -2.73437,-3.10547 -2.73437,-8.39844 z"
         style="font-style:normal;font-variant:normal;font-weight:bold;font-stretch:normal;font-family:monospace;-inkscape-font-specification:'monospace Bold';text-align:center;text-anchor:middle;fill:#ffffff;fill-opacity:1"
         id="path6263" />
      <path
         d="m 634.14453,148.09961 q -1.44531,0.83984 -3.10547,1.25 -1.66015,0.42969 -3.57422,0.42969 -5.05859,0 -7.91015,-3.04688 -2.85157,-3.04687 -2.85157,-8.4375 0,-5.41015 2.8711,-8.45703 2.87109,-3.06641 7.92969,-3.06641 1.75781,0 3.3789,0.41016 1.64063,0.41016 3.26172,1.26953 v 5.23438 q -1.25,-1.07422 -2.75391,-1.64063 -1.48437,-0.58594 -3.08593,-0.58594 -2.79297,0 -4.29688,1.77735 -1.5039,1.77734 -1.5039,5.05859 0,3.28125 1.5039,5.03906 1.50391,1.75782 4.29688,1.75782 1.66015,0 3.10547,-0.54688 1.44531,-0.5664 2.73437,-1.69922 z"
         style="font-style:normal;font-variant:normal;font-weight:bold;font-stretch:normal;font-family:monospace;-inkscape-font-specification:'monospace Bold';text-align:center;text-anchor:middle;fill:#ffffff;fill-opacity:1"
         id="path6265" />
      <path
         d="m 640.88281,118.82227 h 5.72266 v 15.95703 l 6.875,-7.44141 h 6.93359 l -8.28125,8.16406 8.75,13.71094 h -6.32812 l -5.9961,-10.23437 -1.95312,1.875 v 8.35937 h -5.72266 z"
         style="font-style:normal;font-variant:normal;font-weight:bold;font-stretch:normal;font-family:monospace;-inkscape-font-specification:'monospace Bold';text-align:center;text-anchor:middle;fill:#ffffff;fill-opacity:1"
         id="path6267" />
      <path
         d="m 679.59375,118.86133 q -2.57813,4.66797 -3.82813,9.04297 -1.25,4.375 -1.25,8.75 0,4.33593 1.25,8.75 1.25,4.39453 3.82813,9.08203 h -4.45313 q -3.10546,-4.51172 -4.60937,-8.88672 -1.50391,-4.39453 -1.50391,-8.94531 0,-4.53125 1.50391,-8.92578 1.52344,-4.41407 4.60937,-8.86719 z"
         style="font-style:normal;font-variant:normal;font-weight:bold;font-stretch:normal;font-family:monospace;-inkscape-font-specification:'monospace Bold';text-align:center;text-anchor:middle;fill:#ffffff;fill-opacity:1"
         id="path6269" />
      <path
         d="m 694.37891,142.04492 h 6.5039 v 7.16797 h -6.5039 z"
         style="font-style:normal;font-variant:normal;font-weight:bold;font-stretch:normal;font-family:monospace;-inkscape-font-specification:'monospace Bold';text-align:center;text-anchor:middle;fill:#ffffff;fill-opacity:1"
         id="path6271" />
      <path
         d="m 718.44141,142.04492 h 6.5039 v 7.16797 h -6.5039 z"
         style="font-style:normal;font-variant:normal;font-weight:bold;font-stretch:normal;font-family:monospace;-inkscape-font-specification:'monospace Bold';text-align:center;text-anchor:middle;fill:#ffffff;fill-opacity:1"
         id="path6273" />
      <path
         d="m 742.50391,142.04492 h 6.5039 v 7.16797 h -6.5039 z"
         style="font-style:normal;font-variant:normal;font-weight:bold;font-stretch:normal;font-family:monospace;-inkscape-font-specification:'monospace Bold';text-align:center;text-anchor:middle;fill:#ffffff;fill-opacity:1"
         id="path6275" />
      <path
         d="m 763.83203,118.86133 h 4.45313 q 3.08593,4.45312 4.58984,8.86719 1.52344,4.39453 1.52344,8.92578 0,4.55078 -1.50391,8.94531 -1.50391,4.375 -4.60937,8.88672 h -4.45313 q 2.57813,-4.6875 3.82813,-9.08203 1.25,-4.41407 1.25,-8.75 0,-4.375 -1.25,-8.75 -1.25,-4.375 -3.82813,-9.04297 z"
         style="font-style:normal;font-variant:normal;font-weight:bold;font-stretch:normal;font-family:monospace;-inkscape-font-specification:'monospace Bold';text-align:center;text-anchor:middle;fill:#ffffff;fill-opacity:1"
         id="path6277" />
      <path
         d="m 790.62891,142.04492 h 6.5039 v 5.29297 l -3.82812,7.48047 h -4.19922 l 1.52344,-7.48047 z m 0,-13.59375 h 6.5039 v 7.12891 h -6.5039 z"
         style="font-style:normal;font-variant:normal;font-weight:bold;font-stretch:normal;font-family:monospace;-inkscape-font-specification:'monospace Bold';text-align:center;text-anchor:middle;fill:#ffffff;fill-opacity:1"
         id="path6279" />
    </g>
    <path
       style="fill:#00ff00;fill-opacity:0.20784314;stroke:url(#linearGradient5788-6-0-0-6);stroke-width:1.41556156;stroke-miterlimit:4;stroke-dasharray:2.83112292, 2.83112292;stroke-dashoffset:0"
       d="M 4.6582012,256.70175 H 100.11146 v 12.17543 H 4.6582012 Z"
       id="rect5776-9-8-5-5" />
    <path
       style="fill:#ff0000;fill-opacity:0.26666667;stroke:url(#linearGradient5788-9-0);stroke-width:1.46352851;stroke-miterlimit:4;stroke-dasharray:2.92705657, 2.92705657;stroke-dashoffset:0"
       d="M 4.8989315,274.76501 H 100.93981 v 12.93204 H 4.8989315 Z"
       id="rect5776-2-9" />
    <g
       aria-label="drop_privileges()"
       transform="matrix(0.18042304,0,0,0.18537079,-7.7453444,237.26949)"
       style="font-style:normal;font-weight:normal;font-size:40px;line-height:125%;font-family:sans-serif;letter-spacing:0px;word-spacing:0px;fill:#000000;fill-opacity:1;stroke:none;stroke-width:1px;stroke-linecap:butt;stroke-linejoin:miter;stroke-opacity:1"
       id="flowRoot5854-3-0-2-4">
      <path
         d="m 144.06055,130.44336 v -11.62109 h 5.70312 v 30.39062 h -5.70312 v -3.24219 q -0.91797,1.89453 -2.38282,2.85157 -1.44531,0.95703 -3.41796,0.95703 -3.75,0 -5.82032,-3.00782 -2.07031,-3.00781 -2.07031,-8.47656 0,-5.54687 2.08984,-8.51562 2.10938,-2.96875 5.9961,-2.96875 1.75781,0 3.14453,0.91797 1.40625,0.89843 2.46094,2.71484 z m -7.96875,7.89062 q 0,3.16407 1.05468,4.96094 1.05469,1.79688 2.91016,1.79688 1.85547,0 2.92969,-1.79688 1.07422,-1.79687 1.07422,-4.96094 0,-3.16406 -1.07422,-4.96093 -1.07422,-1.79688 -2.92969,-1.79688 -1.85547,0 -2.91016,1.79688 -1.05468,1.79687 -1.05468,4.96093 z"
         style="font-style:normal;font-variant:normal;font-weight:bold;font-stretch:normal;font-family:monospace;-inkscape-font-specification:'monospace Bold';text-align:center;text-anchor:middle;fill:#ffffff;fill-opacity:1"
         id="path6284" />
      <path
         d="m 175.1543,133.37305 q -0.9375,-0.85938 -2.20703,-1.28907 -1.25,-0.42968 -2.75391,-0.42968 -1.81641,0 -3.18359,0.64453 -1.34766,0.625 -2.08985,1.83594 -0.46875,0.74218 -0.66406,1.79687 -0.17578,1.05469 -0.17578,3.20313 v 10.07812 h -5.72266 v -21.875 h 5.72266 v 3.39844 q 0.83984,-1.875 2.57812,-2.89063 1.73828,-1.03515 4.0625,-1.03515 1.17188,0 2.28516,0.29297 1.13281,0.27343 2.14844,0.82031 z"
         style="font-style:normal;font-variant:normal;font-weight:bold;font-stretch:normal;font-family:monospace;-inkscape-font-specification:'monospace Bold';text-align:center;text-anchor:middle;fill:#ffffff;fill-opacity:1"
         id="path6286" />
      <path
         d="m 188.76758,131.45898 q -2.05078,0 -3.22266,1.81641 -1.17187,1.79688 -1.17187,5.01953 0,3.22266 1.17187,5.03906 1.17188,1.79688 3.22266,1.79688 2.07031,0 3.24219,-1.79688 1.17187,-1.8164 1.17187,-5.03906 0,-3.22265 -1.17187,-5.01953 -1.17188,-1.81641 -3.24219,-1.81641 z m -10.11719,6.83594 q 0,-5.29297 2.73438,-8.3789 2.7539,-3.10547 7.38281,-3.10547 4.64844,0 7.38281,3.10547 2.75391,3.08593 2.75391,8.3789 0,5.29297 -2.75391,8.39844 -2.73437,3.08594 -7.38281,3.08594 -4.62891,0 -7.38281,-3.08594 -2.73438,-3.10547 -2.73438,-8.39844 z"
         style="font-style:normal;font-variant:normal;font-weight:bold;font-stretch:normal;font-family:monospace;-inkscape-font-specification:'monospace Bold';text-align:center;text-anchor:middle;fill:#ffffff;fill-opacity:1"
         id="path6288" />
      <path
         d="m 209.43164,146.12695 v 11.40625 h -5.70312 v -30.19531 h 5.70312 v 3.28125 q 0.89844,-1.89453 2.36328,-2.85156 1.46485,-0.95703 3.4375,-0.95703 3.75,0 5.82031,3.00781 2.07032,3.00781 2.07032,8.47656 0,5.54688 -2.10938,8.51563 -2.08984,2.96875 -5.97656,2.96875 -1.75781,0 -3.16406,-0.89844 -1.38672,-0.91797 -2.44141,-2.75391 z m 7.96875,-7.87109 q 0,-3.16406 -1.05469,-4.96094 -1.05468,-1.79687 -2.91015,-1.79687 -1.85547,0 -2.92969,1.79687 -1.07422,1.79688 -1.07422,4.96094 0,3.16406 1.07422,4.96094 1.07422,1.79687 2.92969,1.79687 1.85547,0 2.91015,-1.79687 1.05469,-1.79688 1.05469,-4.96094 z"
         style="font-style:normal;font-variant:normal;font-weight:bold;font-stretch:normal;font-family:monospace;-inkscape-font-specification:'monospace Bold';text-align:center;text-anchor:middle;fill:#ffffff;fill-opacity:1"
         id="path6290" />
      <path
         d="m 248.94336,154.93555 v 3.71093 h -24.08203 v -3.71093 z"
         style="font-style:normal;font-variant:normal;font-weight:bold;font-stretch:normal;font-family:monospace;-inkscape-font-specification:'monospace Bold';text-align:center;text-anchor:middle;fill:#ffffff;fill-opacity:1"
         id="path6292" />
      <path
         d="m 257.55664,146.12695 v 11.40625 h -5.70312 v -30.19531 h 5.70312 v 3.28125 q 0.89844,-1.89453 2.36328,-2.85156 1.46485,-0.95703 3.4375,-0.95703 3.75,0 5.82031,3.00781 2.07032,3.00781 2.07032,8.47656 0,5.54688 -2.10938,8.51563 -2.08984,2.96875 -5.97656,2.96875 -1.75781,0 -3.16406,-0.89844 -1.38672,-0.91797 -2.44141,-2.75391 z m 7.96875,-7.87109 q 0,-3.16406 -1.05469,-4.96094 -1.05468,-1.79687 -2.91015,-1.79687 -1.85547,0 -2.92969,1.79687 -1.07422,1.79688 -1.07422,4.96094 0,3.16406 1.07422,4.96094 1.07422,1.79687 2.92969,1.79687 1.85547,0 2.91015,-1.79687 1.05469,-1.79688 1.05469,-4.96094 z"
         style="font-style:normal;font-variant:normal;font-weight:bold;font-stretch:normal;font-family:monospace;-inkscape-font-specification:'monospace Bold';text-align:center;text-anchor:middle;fill:#ffffff;fill-opacity:1"
         id="path6294" />
      <path
         d="m 295.4668,133.37305 q -0.9375,-0.85938 -2.20703,-1.28907 -1.25,-0.42968 -2.75391,-0.42968 -1.81641,0 -3.18359,0.64453 -1.34766,0.625 -2.08985,1.83594 -0.46875,0.74218 -0.66406,1.79687 -0.17578,1.05469 -0.17578,3.20313 v 10.07812 h -5.72266 v -21.875 h 5.72266 v 3.39844 q 0.83984,-1.875 2.57812,-2.89063 1.73828,-1.03515 4.0625,-1.03515 1.17188,0 2.28516,0.29297 1.13281,0.27343 2.14844,0.82031 z"
         style="font-style:normal;font-variant:normal;font-weight:bold;font-stretch:normal;font-family:monospace;-inkscape-font-specification:'monospace Bold';text-align:center;text-anchor:middle;fill:#ffffff;fill-opacity:1"
         id="path6296" />
      <path
         d="m 301.36523,127.33789 h 11.32813 v 17.48047 h 7.10937 v 4.39453 H 299.8418 v -4.39453 h 7.1289 v -13.08594 h -5.60547 z m 5.60547,-10.64453 h 5.72266 v 6.67969 h -5.72266 z"
         style="font-style:normal;font-variant:normal;font-weight:bold;font-stretch:normal;font-family:monospace;-inkscape-font-specification:'monospace Bold';text-align:center;text-anchor:middle;fill:#ffffff;fill-opacity:1"
         id="path6298" />
      <path
         d="m 343.63086,127.33789 -6.95313,21.875 h -7.05078 l -6.95312,-21.875 h 5.80078 l 4.66797,17.07031 4.6875,-17.07031 z"
         style="font-style:normal;font-variant:normal;font-weight:bold;font-stretch:normal;font-family:monospace;-inkscape-font-specification:'monospace Bold';text-align:center;text-anchor:middle;fill:#ffffff;fill-opacity:1"
         id="path6300" />
      <path
         d="m 349.49023,127.33789 h 11.32813 v 17.48047 h 7.10937 v 4.39453 H 347.9668 v -4.39453 h 7.1289 v -13.08594 h -5.60547 z m 5.60547,-10.64453 h 5.72266 v 6.67969 h -5.72266 z"
         style="font-style:normal;font-variant:normal;font-weight:bold;font-stretch:normal;font-family:monospace;-inkscape-font-specification:'monospace Bold';text-align:center;text-anchor:middle;fill:#ffffff;fill-opacity:1"
         id="path6302" />
      <path
         d="m 376.79492,140.0918 v -16.875 h -5.80078 v -4.39453 h 11.52344 v 21.26953 q 0,2.57812 0.80078,3.65234 0.80078,1.07422 2.71484,1.07422 h 4.57032 v 4.39453 h -6.17188 q -4.08203,0 -5.85937,-2.10937 -1.77735,-2.10938 -1.77735,-7.01172 z"
         style="font-style:normal;font-variant:normal;font-weight:bold;font-stretch:normal;font-family:monospace;-inkscape-font-specification:'monospace Bold';text-align:center;text-anchor:middle;fill:#ffffff;fill-opacity:1"
         id="path6304" />
      <path
         d="m 414.82227,148.13867 q -1.99219,0.82031 -4.0625,1.23047 -2.07032,0.41016 -4.375,0.41016 -5.48829,0 -8.39844,-2.92969 -2.89063,-2.94922 -2.89063,-8.47656 0,-5.35157 2.79297,-8.45703 2.79297,-3.10547 7.61719,-3.10547 4.86328,0 7.53906,2.89062 2.69531,2.8711 2.69531,8.10547 v 2.32422 h -14.82421 q 0.0195,2.57812 1.52343,3.84766 1.50391,1.26953 4.49219,1.26953 1.97266,0 3.88672,-0.56641 1.91406,-0.56641 4.00391,-1.79687 z m -4.84375,-12.30469 q -0.0391,-2.26562 -1.17188,-3.41796 -1.11328,-1.17188 -3.30078,-1.17188 -1.97266,0 -3.14453,1.21094 -1.17188,1.1914 -1.38672,3.39844 z"
         style="font-style:normal;font-variant:normal;font-weight:bold;font-stretch:normal;font-family:monospace;-inkscape-font-specification:'monospace Bold';text-align:center;text-anchor:middle;fill:#ffffff;fill-opacity:1"
         id="path6306" />
      <path
         d="m 433.04492,137.92383 q 0,-2.92969 -1.11328,-4.6875 -1.11328,-1.77735 -2.92969,-1.77735 -1.79687,0 -2.91015,1.75782 -1.09375,1.75781 -1.09375,4.70703 0,2.96875 1.09375,4.72656 1.11328,1.75781 2.91015,1.75781 1.81641,0 2.92969,-1.75781 1.11328,-1.77734 1.11328,-4.72656 z m 5.72266,9.64844 q 0,5.2539 -2.38281,7.57812 -2.36329,2.34375 -7.69532,2.34375 -1.79687,0 -3.55468,-0.27344 -1.75782,-0.2539 -3.57422,-0.80078 v -5.2539 q 1.62109,0.89843 3.30078,1.32812 1.67969,0.42969 3.45703,0.42969 2.42187,0 3.57422,-1.15235 1.15234,-1.13281 1.15234,-3.55468 v -2.36328 q -0.83984,1.5625 -2.22656,2.32421 -1.38672,0.76172 -3.37891,0.76172 -3.75,0 -5.95703,-2.92968 -2.20703,-2.92969 -2.20703,-7.94922 0,-5.19532 2.20703,-8.24219 2.20703,-3.04688 5.91797,-3.04688 1.875,0 3.33984,0.87891 1.46485,0.87891 2.30469,2.48047 v -2.79297 h 5.72266 z"
         style="font-style:normal;font-variant:normal;font-weight:bold;font-stretch:normal;font-family:monospace;-inkscape-font-specification:'monospace Bold';text-align:center;text-anchor:middle;fill:#ffffff;fill-opacity:1"
         id="path6308" />
      <path
         d="m 462.94727,148.13867 q -1.99219,0.82031 -4.0625,1.23047 -2.07032,0.41016 -4.375,0.41016 -5.48829,0 -8.39844,-2.92969 -2.89063,-2.94922 -2.89063,-8.47656 0,-5.35157 2.79297,-8.45703 2.79297,-3.10547 7.61719,-3.10547 4.86328,0 7.53906,2.89062 2.69531,2.8711 2.69531,8.10547 v 2.32422 h -14.82421 q 0.0195,2.57812 1.52343,3.84766 1.50391,1.26953 4.49219,1.26953 1.97266,0 3.88672,-0.56641 1.91406,-0.56641 4.00391,-1.79687 z m -4.84375,-12.30469 q -0.0391,-2.26562 -1.17188,-3.41796 -1.11328,-1.17188 -3.30078,-1.17188 -1.97266,0 -3.14453,1.21094 -1.17188,1.1914 -1.38672,3.39844 z"
         style="font-style:normal;font-variant:normal;font-weight:bold;font-stretch:normal;font-family:monospace;-inkscape-font-specification:'monospace Bold';text-align:center;text-anchor:middle;fill:#ffffff;fill-opacity:1"
         id="path6310" />
      <path
         d="m 484.8418,128.02148 v 5 q -1.58203,-1.01562 -3.30078,-1.52343 -1.69922,-0.52735 -3.41797,-0.52735 -1.91407,0 -2.89063,0.56641 -0.97656,0.54687 -0.97656,1.64062 0,1.5625 4.17969,2.53907 l 0.21484,0.0586 1.64063,0.39063 q 3.125,0.74218 4.57031,2.40234 1.46484,1.64062 1.46484,4.45312 0,3.37891 -2.22656,5.07813 -2.20703,1.67969 -6.66016,1.67969 -1.97265,0 -4.04297,-0.35157 -2.07031,-0.33203 -4.19921,-1.01562 v -5 q 1.89453,1.07422 3.84765,1.64062 1.97266,0.56641 3.8086,0.56641 2.01171,0 3.04687,-0.58594 1.03516,-0.58593 1.03516,-1.69922 0,-1.09375 -0.74219,-1.67968 -0.72266,-0.58594 -3.47656,-1.25 l -1.58203,-0.35157 q -3.28125,-0.74218 -4.78516,-2.32421 -1.50391,-1.58204 -1.50391,-4.23829 0,-3.16406 2.28516,-4.92187 2.28516,-1.75781 6.42578,-1.75781 1.85547,0 3.69141,0.3125 1.85547,0.29297 3.59375,0.89843 z"
         style="font-style:normal;font-variant:normal;font-weight:bold;font-stretch:normal;font-family:monospace;-inkscape-font-specification:'monospace Bold';text-align:center;text-anchor:middle;fill:#ffffff;fill-opacity:1"
         id="path6312" />
      <path
         d="m 507.5957,118.86133 q -2.57812,4.66797 -3.82812,9.04297 -1.25,4.375 -1.25,8.75 0,4.33593 1.25,8.75 1.25,4.39453 3.82812,9.08203 h -4.45312 q -3.10547,-4.51172 -4.60938,-8.88672 -1.5039,-4.39453 -1.5039,-8.94531 0,-4.53125 1.5039,-8.92578 1.52344,-4.41407 4.60938,-8.86719 z"
         style="font-style:normal;font-variant:normal;font-weight:bold;font-stretch:normal;font-family:monospace;-inkscape-font-specification:'monospace Bold';text-align:center;text-anchor:middle;fill:#ffffff;fill-opacity:1"
         id="path6314" />
      <path
         d="m 519.64648,118.86133 h 4.45313 q 3.08594,4.45312 4.58984,8.86719 1.52344,4.39453 1.52344,8.92578 0,4.55078 -1.50391,8.94531 -1.5039,4.375 -4.60937,8.88672 h -4.45313 q 2.57813,-4.6875 3.82813,-9.08203 1.25,-4.41407 1.25,-8.75 0,-4.375 -1.25,-8.75 -1.25,-4.375 -3.82813,-9.04297 z"
         style="font-style:normal;font-variant:normal;font-weight:bold;font-stretch:normal;font-family:monospace;-inkscape-font-specification:'monospace Bold';text-align:center;text-anchor:middle;fill:#ffffff;fill-opacity:1"
         id="path6316" />
    </g>
    <g
       aria-label="// code ...."
       transform="matrix(0.18042304,0,0,0.18537079,-28.154996,255.98373)"
       style="font-style:normal;font-weight:normal;font-size:40px;line-height:125%;font-family:sans-serif;letter-spacing:0px;word-spacing:0px;fill:#000000;fill-opacity:1;stroke:none;stroke-width:1px;stroke-linecap:butt;stroke-linejoin:miter;stroke-opacity:1"
       id="flowRoot5854-3-5-7">
      <path
         d="m 318.16797,120.05273 h 4.3164 l -15.35156,32.8711 h -4.3164 z"
         style="font-style:normal;font-variant:normal;font-weight:bold;font-stretch:normal;font-family:monospace;-inkscape-font-specification:'monospace Bold';text-align:center;text-anchor:middle;fill:#ffffff;fill-opacity:1"
         id="path6319" />
      <path
         d="m 342.23047,120.05273 h 4.3164 l -15.35156,32.8711 h -4.3164 z"
         style="font-style:normal;font-variant:normal;font-weight:bold;font-stretch:normal;font-family:monospace;-inkscape-font-specification:'monospace Bold';text-align:center;text-anchor:middle;fill:#ffffff;fill-opacity:1"
         id="path6321" />
      <path
         d="m 393.51953,148.09961 q -1.44531,0.83984 -3.10547,1.25 -1.66015,0.42969 -3.57422,0.42969 -5.05859,0 -7.91015,-3.04688 -2.85157,-3.04687 -2.85157,-8.4375 0,-5.41015 2.8711,-8.45703 2.87109,-3.06641 7.92969,-3.06641 1.75781,0 3.3789,0.41016 1.64063,0.41016 3.26172,1.26953 v 5.23438 q -1.25,-1.07422 -2.75391,-1.64063 -1.48437,-0.58594 -3.08593,-0.58594 -2.79297,0 -4.29688,1.77735 -1.5039,1.77734 -1.5039,5.05859 0,3.28125 1.5039,5.03906 1.50391,1.75782 4.29688,1.75782 1.66015,0 3.10547,-0.54688 1.44531,-0.5664 2.73437,-1.69922 z"
         style="font-style:normal;font-variant:normal;font-weight:bold;font-stretch:normal;font-family:monospace;-inkscape-font-specification:'monospace Bold';text-align:center;text-anchor:middle;fill:#ffffff;fill-opacity:1"
         id="path6323" />
      <path
         d="m 408.89062,131.45898 q -2.05078,0 -3.22265,1.81641 -1.17188,1.79688 -1.17188,5.01953 0,3.22266 1.17188,5.03906 1.17187,1.79688 3.22265,1.79688 2.07032,0 3.24219,-1.79688 1.17188,-1.8164 1.17188,-5.03906 0,-3.22265 -1.17188,-5.01953 -1.17187,-1.81641 -3.24219,-1.81641 z m -10.11718,6.83594 q 0,-5.29297 2.73437,-8.3789 2.75391,-3.10547 7.38281,-3.10547 4.64844,0 7.38282,3.10547 2.7539,3.08593 2.7539,8.3789 0,5.29297 -2.7539,8.39844 -2.73438,3.08594 -7.38282,3.08594 -4.6289,0 -7.38281,-3.08594 -2.73437,-3.10547 -2.73437,-8.39844 z"
         style="font-style:normal;font-variant:normal;font-weight:bold;font-stretch:normal;font-family:monospace;-inkscape-font-specification:'monospace Bold';text-align:center;text-anchor:middle;fill:#ffffff;fill-opacity:1"
         id="path6325" />
      <path
         d="m 436.37109,130.44336 v -11.62109 h 5.70313 v 30.39062 h -5.70313 v -3.24219 q -0.91797,1.89453 -2.38281,2.85157 -1.44531,0.95703 -3.41797,0.95703 -3.75,0 -5.82031,-3.00782 -2.07031,-3.00781 -2.07031,-8.47656 0,-5.54687 2.08984,-8.51562 2.10938,-2.96875 5.99609,-2.96875 1.75782,0 3.14454,0.91797 1.40625,0.89843 2.46093,2.71484 z m -7.96875,7.89062 q 0,3.16407 1.05469,4.96094 1.05469,1.79688 2.91016,1.79688 1.85547,0 2.92968,-1.79688 1.07422,-1.79687 1.07422,-4.96094 0,-3.16406 -1.07422,-4.96093 -1.07421,-1.79688 -2.92968,-1.79688 -1.85547,0 -2.91016,1.79688 -1.05469,1.79687 -1.05469,4.96093 z"
         style="font-style:normal;font-variant:normal;font-weight:bold;font-stretch:normal;font-family:monospace;-inkscape-font-specification:'monospace Bold';text-align:center;text-anchor:middle;fill:#ffffff;fill-opacity:1"
         id="path6327" />
      <path
         d="m 466.50781,148.13867 q -1.99219,0.82031 -4.0625,1.23047 -2.07031,0.41016 -4.375,0.41016 -5.48828,0 -8.39844,-2.92969 -2.89062,-2.94922 -2.89062,-8.47656 0,-5.35157 2.79297,-8.45703 2.79297,-3.10547 7.61719,-3.10547 4.86328,0 7.53906,2.89062 2.69531,2.8711 2.69531,8.10547 v 2.32422 h -14.82422 q 0.0195,2.57812 1.52344,3.84766 1.50391,1.26953 4.49219,1.26953 1.97265,0 3.88672,-0.56641 1.91406,-0.56641 4.0039,-1.79687 z m -4.84375,-12.30469 q -0.0391,-2.26562 -1.17187,-3.41796 -1.11328,-1.17188 -3.30078,-1.17188 -1.97266,0 -3.14454,1.21094 -1.17187,1.1914 -1.38671,3.39844 z"
         style="font-style:normal;font-variant:normal;font-weight:bold;font-stretch:normal;font-family:monospace;-inkscape-font-specification:'monospace Bold';text-align:center;text-anchor:middle;fill:#ffffff;fill-opacity:1"
         id="path6329" />
      <path
         d="m 501.87891,142.04492 h 6.5039 v 7.16797 h -6.5039 z"
         style="font-style:normal;font-variant:normal;font-weight:bold;font-stretch:normal;font-family:monospace;-inkscape-font-specification:'monospace Bold';text-align:center;text-anchor:middle;fill:#ffffff;fill-opacity:1"
         id="path6331" />
      <path
         d="m 525.94141,142.04492 h 6.5039 v 7.16797 h -6.5039 z"
         style="font-style:normal;font-variant:normal;font-weight:bold;font-stretch:normal;font-family:monospace;-inkscape-font-specification:'monospace Bold';text-align:center;text-anchor:middle;fill:#ffffff;fill-opacity:1"
         id="path6333" />
      <path
         d="m 550.00391,142.04492 h 6.5039 v 7.16797 h -6.5039 z"
         style="font-style:normal;font-variant:normal;font-weight:bold;font-stretch:normal;font-family:monospace;-inkscape-font-specification:'monospace Bold';text-align:center;text-anchor:middle;fill:#ffffff;fill-opacity:1"
         id="path6335" />
      <path
         d="m 574.06641,142.04492 h 6.5039 v 7.16797 h -6.5039 z"
         style="font-style:normal;font-variant:normal;font-weight:bold;font-stretch:normal;font-family:monospace;-inkscape-font-specification:'monospace Bold';text-align:center;text-anchor:middle;fill:#ffffff;fill-opacity:1"
         id="path6337" />
    </g>
    <path
       style="fill:#ff0000;fill-opacity:0.26666667;stroke:url(#linearGradient5788-9-0-4);stroke-width:1.46352851;stroke-miterlimit:4;stroke-dasharray:2.9270566, 2.9270566;stroke-dashoffset:0"
       d="M 5.4334655,159.30461 H 101.47434 v 12.93204 H 5.4334655 Z"
       id="rect5776-2-9-9" />
    <g
       aria-label="// code ...."
       transform="matrix(0.18042304,0,0,0.18537079,-27.620462,140.52331)"
       style="font-style:normal;font-weight:normal;font-size:40px;line-height:125%;font-family:sans-serif;letter-spacing:0px;word-spacing:0px;fill:#000000;fill-opacity:1;stroke:none;stroke-width:1px;stroke-linecap:butt;stroke-linejoin:miter;stroke-opacity:1"
       id="flowRoot5854-3-5-7-4">
      <path
         d="m 318.16797,120.05273 h 4.3164 l -15.35156,32.8711 h -4.3164 z"
         style="font-style:normal;font-variant:normal;font-weight:bold;font-stretch:normal;font-family:monospace;-inkscape-font-specification:'monospace Bold';text-align:center;text-anchor:middle;fill:#ffffff;fill-opacity:1"
         id="path6341" />
      <path
         d="m 342.23047,120.05273 h 4.3164 l -15.35156,32.8711 h -4.3164 z"
         style="font-style:normal;font-variant:normal;font-weight:bold;font-stretch:normal;font-family:monospace;-inkscape-font-specification:'monospace Bold';text-align:center;text-anchor:middle;fill:#ffffff;fill-opacity:1"
         id="path6343" />
      <path
         d="m 393.51953,148.09961 q -1.44531,0.83984 -3.10547,1.25 -1.66015,0.42969 -3.57422,0.42969 -5.05859,0 -7.91015,-3.04688 -2.85157,-3.04687 -2.85157,-8.4375 0,-5.41015 2.8711,-8.45703 2.87109,-3.06641 7.92969,-3.06641 1.75781,0 3.3789,0.41016 1.64063,0.41016 3.26172,1.26953 v 5.23438 q -1.25,-1.07422 -2.75391,-1.64063 -1.48437,-0.58594 -3.08593,-0.58594 -2.79297,0 -4.29688,1.77735 -1.5039,1.77734 -1.5039,5.05859 0,3.28125 1.5039,5.03906 1.50391,1.75782 4.29688,1.75782 1.66015,0 3.10547,-0.54688 1.44531,-0.5664 2.73437,-1.69922 z"
         style="font-style:normal;font-variant:normal;font-weight:bold;font-stretch:normal;font-family:monospace;-inkscape-font-specification:'monospace Bold';text-align:center;text-anchor:middle;fill:#ffffff;fill-opacity:1"
         id="path6345" />
      <path
         d="m 408.89062,131.45898 q -2.05078,0 -3.22265,1.81641 -1.17188,1.79688 -1.17188,5.01953 0,3.22266 1.17188,5.03906 1.17187,1.79688 3.22265,1.79688 2.07032,0 3.24219,-1.79688 1.17188,-1.8164 1.17188,-5.03906 0,-3.22265 -1.17188,-5.01953 -1.17187,-1.81641 -3.24219,-1.81641 z m -10.11718,6.83594 q 0,-5.29297 2.73437,-8.3789 2.75391,-3.10547 7.38281,-3.10547 4.64844,0 7.38282,3.10547 2.7539,3.08593 2.7539,8.3789 0,5.29297 -2.7539,8.39844 -2.73438,3.08594 -7.38282,3.08594 -4.6289,0 -7.38281,-3.08594 -2.73437,-3.10547 -2.73437,-8.39844 z"
         style="font-style:normal;font-variant:normal;font-weight:bold;font-stretch:normal;font-family:monospace;-inkscape-font-specification:'monospace Bold';text-align:center;text-anchor:middle;fill:#ffffff;fill-opacity:1"
         id="path6347" />
      <path
         d="m 436.37109,130.44336 v -11.62109 h 5.70313 v 30.39062 h -5.70313 v -3.24219 q -0.91797,1.89453 -2.38281,2.85157 -1.44531,0.95703 -3.41797,0.95703 -3.75,0 -5.82031,-3.00782 -2.07031,-3.00781 -2.07031,-8.47656 0,-5.54687 2.08984,-8.51562 2.10938,-2.96875 5.99609,-2.96875 1.75782,0 3.14454,0.91797 1.40625,0.89843 2.46093,2.71484 z m -7.96875,7.89062 q 0,3.16407 1.05469,4.96094 1.05469,1.79688 2.91016,1.79688 1.85547,0 2.92968,-1.79688 1.07422,-1.79687 1.07422,-4.96094 0,-3.16406 -1.07422,-4.96093 -1.07421,-1.79688 -2.92968,-1.79688 -1.85547,0 -2.91016,1.79688 -1.05469,1.79687 -1.05469,4.96093 z"
         style="font-style:normal;font-variant:normal;font-weight:bold;font-stretch:normal;font-family:monospace;-inkscape-font-specification:'monospace Bold';text-align:center;text-anchor:middle;fill:#ffffff;fill-opacity:1"
         id="path6349" />
      <path
         d="m 466.50781,148.13867 q -1.99219,0.82031 -4.0625,1.23047 -2.07031,0.41016 -4.375,0.41016 -5.48828,0 -8.39844,-2.92969 -2.89062,-2.94922 -2.89062,-8.47656 0,-5.35157 2.79297,-8.45703 2.79297,-3.10547 7.61719,-3.10547 4.86328,0 7.53906,2.89062 2.69531,2.8711 2.69531,8.10547 v 2.32422 h -14.82422 q 0.0195,2.57812 1.52344,3.84766 1.50391,1.26953 4.49219,1.26953 1.97265,0 3.88672,-0.56641 1.91406,-0.56641 4.0039,-1.79687 z m -4.84375,-12.30469 q -0.0391,-2.26562 -1.17187,-3.41796 -1.11328,-1.17188 -3.30078,-1.17188 -1.97266,0 -3.14454,1.21094 -1.17187,1.1914 -1.38671,3.39844 z"
         style="font-style:normal;font-variant:normal;font-weight:bold;font-stretch:normal;font-family:monospace;-inkscape-font-specification:'monospace Bold';text-align:center;text-anchor:middle;fill:#ffffff;fill-opacity:1"
         id="path6351" />
      <path
         d="m 501.87891,142.04492 h 6.5039 v 7.16797 h -6.5039 z"
         style="font-style:normal;font-variant:normal;font-weight:bold;font-stretch:normal;font-family:monospace;-inkscape-font-specification:'monospace Bold';text-align:center;text-anchor:middle;fill:#ffffff;fill-opacity:1"
         id="path6353" />
      <path
         d="m 525.94141,142.04492 h 6.5039 v 7.16797 h -6.5039 z"
         style="font-style:normal;font-variant:normal;font-weight:bold;font-stretch:normal;font-family:monospace;-inkscape-font-specification:'monospace Bold';text-align:center;text-anchor:middle;fill:#ffffff;fill-opacity:1"
         id="path6355" />
      <path
         d="m 550.00391,142.04492 h 6.5039 v 7.16797 h -6.5039 z"
         style="font-style:normal;font-variant:normal;font-weight:bold;font-stretch:normal;font-family:monospace;-inkscape-font-specification:'monospace Bold';text-align:center;text-anchor:middle;fill:#ffffff;fill-opacity:1"
         id="path6357" />
      <path
         d="m 574.06641,142.04492 h 6.5039 v 7.16797 h -6.5039 z"
         style="font-style:normal;font-variant:normal;font-weight:bold;font-stretch:normal;font-family:monospace;-inkscape-font-specification:'monospace Bold';text-align:center;text-anchor:middle;fill:#ffffff;fill-opacity:1"
         id="path6359" />
    </g>
    <path
       style="display:inline;fill:#ffffff;fill-rule:evenodd;stroke:url(#linearGradient4653-1-50);stroke-width:0.61293334;stroke-linecap:butt;stroke-linejoin:miter;stroke-miterlimit:4;stroke-dasharray:none;stroke-opacity:1"
       d="m 18.746011,169.53006 0.183477,8.6703 3.897176,-0.15106 -6.458011,3.59437 -6.7077187,-3.25369 3.8980787,-0.0736 0.122666,-8.53048 z"
       id="path4647-5-8"
       inkscape:connector-curvature="0"
       sodipodi:nodetypes="cccccccc" />
    <path
       style="display:inline;fill:#ffffff;fill-rule:evenodd;stroke:url(#linearGradient4653-1-50-4);stroke-width:0.61293334;stroke-linecap:butt;stroke-linejoin:miter;stroke-miterlimit:4;stroke-dasharray:none;stroke-opacity:1"
       d="m 18.814124,190.17625 0.183477,8.6703 3.897176,-0.15106 -6.458011,3.59437 -6.7077183,-3.25369 3.8980783,-0.0736 0.122666,-8.53048 z"
       id="path4647-5-8-2"
       inkscape:connector-curvature="0"
       sodipodi:nodetypes="cccccccc" />
    <path
       style="display:inline;fill:#ffffff;fill-rule:evenodd;stroke:url(#linearGradient4653-1-50-8);stroke-width:0.61293334;stroke-linecap:butt;stroke-linejoin:miter;stroke-miterlimit:4;stroke-dasharray:none;stroke-opacity:1"
       d="m 98.651779,201.90636 8.654031,-0.56162 -0.32096,-3.88687 3.87273,6.29502 -2.95792,6.84331 -0.24361,-3.89116 -8.527702,0.24967 z"
       id="path4647-5-8-9"
       inkscape:connector-curvature="0"
       sodipodi:nodetypes="cccccccc" />
    <path
       style="display:inline;fill:#ffffff;fill-rule:evenodd;stroke:url(#linearGradient4653-1-50-2);stroke-width:0.61293334;stroke-linecap:butt;stroke-linejoin:miter;stroke-miterlimit:4;stroke-dasharray:none;stroke-opacity:1"
       d="m 201.32427,207.64667 0.18347,8.6703 3.89718,-0.15106 -6.45801,3.59437 -6.70772,-3.25369 3.89808,-0.0736 0.12266,-8.53048 z"
       id="path4647-5-8-8"
       inkscape:connector-curvature="0"
       sodipodi:nodetypes="cccccccc" />
    <path
       style="display:inline;fill:#ffffff;fill-rule:evenodd;stroke:url(#linearGradient4653-1-50-86);stroke-width:0.61293334;stroke-linecap:butt;stroke-linejoin:miter;stroke-miterlimit:4;stroke-dasharray:none;stroke-opacity:1"
       d="m 148.64992,229.40869 -5.0424,7.05564 3.21247,2.21154 -7.32487,-0.98581 -3.42617,-6.62127 3.16682,2.27412 5.20396,-6.76039 z"
       id="path4647-5-8-3"
       inkscape:connector-curvature="0"
       sodipodi:nodetypes="cccccccc" />
    <path
       style="display:inline;fill:#ffffff;fill-rule:evenodd;stroke:url(#linearGradient4653-1-50-83);stroke-width:0.61293334;stroke-linecap:butt;stroke-linejoin:miter;stroke-miterlimit:4;stroke-dasharray:none;stroke-opacity:1"
       d="m 12.491029,247.38626 0.183481,8.6703 3.89718,-0.15106 -6.458015,3.59437 -6.7077195,-3.25369 3.8980791,-0.0736 0.122666,-8.53048 z"
       id="path4647-5-8-38"
       inkscape:connector-curvature="0"
       sodipodi:nodetypes="cccccccc" />
    <path
       style="display:inline;fill:#ffffff;fill-rule:evenodd;stroke:url(#linearGradient4653-1-50-0);stroke-width:0.61293334;stroke-linecap:butt;stroke-linejoin:miter;stroke-miterlimit:4;stroke-dasharray:none;stroke-opacity:1"
       d="m 13.426701,267.563 0.183477,8.6703 3.897177,-0.15106 -6.458013,3.59437 -6.7077191,-3.25369 3.8980791,-0.0736 0.122666,-8.53048 z"
       id="path4647-5-8-7"
       inkscape:connector-curvature="0"
       sodipodi:nodetypes="cccccccc" />
    <path
       style="opacity:1;fill:#0000ff;fill-opacity:0.05098039;stroke:#ffffff;stroke-width:0.98659742;stroke-miterlimit:4;stroke-dasharray:5.91958492, 1.97319498;stroke-dashoffset:0;stroke-opacity:0.19215686"
       d="M 1.8726857,195.0804 H 209.02092 v 76.86561 H 1.8726857 Z"
       id="rect5776-9-8-9" />
    <g
       style="font-style:normal;font-weight:normal;font-size:10.58333302px;line-height:125%;font-family:sans-serif;letter-spacing:0px;word-spacing:0px;fill:#000000;fill-opacity:1;stroke:#ffffff;stroke-width:0.26458332px;stroke-linecap:butt;stroke-linejoin:miter;stroke-opacity:0.19215686"
       id="text6108" />
    <g
       aria-label="(Privileged)"
       style="font-style:normal;font-weight:normal;font-size:10.58333302px;line-height:125%;font-family:sans-serif;letter-spacing:0px;word-spacing:0px;opacity:0.51200005;fill:#000000;fill-opacity:1;stroke:none;stroke-width:0.26458332px;stroke-linecap:butt;stroke-linejoin:miter;stroke-opacity:1"
       id="text6112">
      <path
         d="m 163.82467,269.59958 h -1.0232 q -0.5271,-0.85094 -0.77859,-1.61575 -0.25149,-0.76826 -0.25149,-1.52273 0,-0.75448 0.25149,-1.52618 0.25494,-0.77515 0.77859,-1.6192 h 1.0232 q -0.44098,0.81649 -0.66146,1.59853 -0.22049,0.77859 -0.22049,1.53996 0,0.76136 0.21704,1.5434 0.22049,0.78204 0.66491,1.60197 z"
         style="font-style:normal;font-variant:normal;font-weight:bold;font-stretch:normal;font-size:7.05555534px;line-height:54.10001278%;font-family:sans-serif;-inkscape-font-specification:'sans-serif Bold';text-align:center;text-anchor:middle;fill:#ffffff;stroke-width:0.26458332px"
         id="path6364" />
      <path
         d="m 165.03734,263.52588 h 2.20142 q 0.98185,0 1.5055,0.43752 0.5271,0.43408 0.5271,1.24024 0,0.80959 -0.5271,1.24712 -0.52365,0.43408 -1.5055,0.43408 h -0.87506 v 1.78456 h -1.32636 z m 1.32636,0.96118 v 1.4366 h 0.73381 q 0.38585,0 0.596,-0.18603 0.21015,-0.18948 0.21015,-0.53399 0,-0.34451 -0.21015,-0.53055 -0.21015,-0.18603 -0.596,-0.18603 z"
         style="font-style:normal;font-variant:normal;font-weight:bold;font-stretch:normal;font-size:7.05555534px;line-height:54.10001278%;font-family:sans-serif;-inkscape-font-specification:'sans-serif Bold';text-align:center;text-anchor:middle;fill:#ffffff;stroke-width:0.26458332px"
         id="path6366" />
      <path
         d="m 173.01618,265.86165 q -0.16192,-0.0758 -0.32384,-0.11024 -0.15847,-0.0379 -0.32039,-0.0379 -0.47542,0 -0.73381,0.30661 -0.25493,0.30317 -0.25493,0.87161 v 1.77767 h -1.23335 v -3.8585 h 1.23335 v 0.63389 q 0.23771,-0.37896 0.54432,-0.55121 0.31006,-0.1757 0.7407,-0.1757 0.062,0 0.13436,0.007 0.0723,0.003 0.21015,0.0207 z"
         style="font-style:normal;font-variant:normal;font-weight:bold;font-stretch:normal;font-size:7.05555534px;line-height:54.10001278%;font-family:sans-serif;-inkscape-font-specification:'sans-serif Bold';text-align:center;text-anchor:middle;fill:#ffffff;stroke-width:0.26458332px"
         id="path6368" />
      <path
         d="m 173.6363,264.8109 h 1.23334 v 3.8585 h -1.23334 z m 0,-1.50207 h 1.23334 v 1.00597 h -1.23334 z"
         style="font-style:normal;font-variant:normal;font-weight:bold;font-stretch:normal;font-size:7.05555534px;line-height:54.10001278%;font-family:sans-serif;-inkscape-font-specification:'sans-serif Bold';text-align:center;text-anchor:middle;fill:#ffffff;stroke-width:0.26458332px"
         id="path6370" />
      <path
         d="m 175.57589,264.8109 h 1.23334 l 0.96118,2.6665 0.95774,-2.6665 h 1.23679 l -1.51929,3.8585 h -1.35392 z"
         style="font-style:normal;font-variant:normal;font-weight:bold;font-stretch:normal;font-size:7.05555534px;line-height:54.10001278%;font-family:sans-serif;-inkscape-font-specification:'sans-serif Bold';text-align:center;text-anchor:middle;fill:#ffffff;stroke-width:0.26458332px"
         id="path6372" />
      <path
         d="m 180.66429,264.8109 h 1.23335 v 3.8585 h -1.23335 z m 0,-1.50207 h 1.23335 v 1.00597 h -1.23335 z"
         style="font-style:normal;font-variant:normal;font-weight:bold;font-stretch:normal;font-size:7.05555534px;line-height:54.10001278%;font-family:sans-serif;-inkscape-font-specification:'sans-serif Bold';text-align:center;text-anchor:middle;fill:#ffffff;stroke-width:0.26458332px"
         id="path6374" />
      <path
         d="m 183.08964,263.30883 h 1.23335 v 5.36057 h -1.23335 z"
         style="font-style:normal;font-variant:normal;font-weight:bold;font-stretch:normal;font-size:7.05555534px;line-height:54.10001278%;font-family:sans-serif;-inkscape-font-specification:'sans-serif Bold';text-align:center;text-anchor:middle;fill:#ffffff;stroke-width:0.26458332px"
         id="path6376" />
      <path
         d="m 189.3666,266.72981 v 0.3514 h -2.88354 q 0.0448,0.43409 0.3135,0.65113 0.26872,0.21704 0.75103,0.21704 0.3893,0 0.79582,-0.11369 0.40997,-0.11713 0.8406,-0.3514 v 0.95085 q -0.43752,0.16536 -0.87505,0.24804 -0.43753,0.0861 -0.87505,0.0861 -1.04731,0 -1.62953,-0.53054 -0.57878,-0.53399 -0.57878,-1.49518 0,-0.94395 0.56844,-1.48483 0.57189,-0.54088 1.57096,-0.54088 0.90951,0 1.45383,0.54777 0.54777,0.54777 0.54777,1.46416 z m -1.26779,-0.40996 q 0,-0.3514 -0.20671,-0.565 -0.20326,-0.21704 -0.53399,-0.21704 -0.35829,0 -0.58222,0.20326 -0.22393,0.19982 -0.27905,0.57878 z"
         style="font-style:normal;font-variant:normal;font-weight:bold;font-stretch:normal;font-size:7.05555534px;line-height:54.10001278%;font-family:sans-serif;-inkscape-font-specification:'sans-serif Bold';text-align:center;text-anchor:middle;fill:#ffffff;stroke-width:0.26458332px"
         id="path6378" />
      <path
         d="m 192.92194,268.01483 q -0.25494,0.33762 -0.56155,0.4961 -0.30661,0.15847 -0.70969,0.15847 -0.70624,0 -1.16789,-0.55466 -0.46164,-0.5581 -0.46164,-1.41938 0,-0.86472 0.46164,-1.41593 0.46165,-0.55466 1.16789,-0.55466 0.40308,0 0.70969,0.15847 0.30661,0.15848 0.56155,0.49954 v -0.57188 h 1.24024 v 3.46921 q 0,0.93017 -0.58912,1.41938 -0.58566,0.49265 -1.70187,0.49265 -0.36174,0 -0.69936,-0.0551 -0.33762,-0.0551 -0.67868,-0.16881 v -0.96118 q 0.32384,0.18604 0.6339,0.27561 0.31006,0.093 0.62356,0.093 0.60634,0 0.88883,-0.26527 0.2825,-0.26528 0.2825,-0.83027 z m -0.81304,-2.40123 q -0.38241,0 -0.596,0.2825 -0.2136,0.2825 -0.2136,0.79926 0,0.53055 0.20671,0.80616 0.2067,0.27216 0.60289,0.27216 0.38585,0 0.59945,-0.2825 0.21359,-0.2825 0.21359,-0.79582 0,-0.51676 -0.21359,-0.79926 -0.2136,-0.2825 -0.59945,-0.2825 z"
         style="font-style:normal;font-variant:normal;font-weight:bold;font-stretch:normal;font-size:7.05555534px;line-height:54.10001278%;font-family:sans-serif;-inkscape-font-specification:'sans-serif Bold';text-align:center;text-anchor:middle;fill:#ffffff;stroke-width:0.26458332px"
         id="path6380" />
      <path
         d="m 199.2058,266.72981 v 0.3514 h -2.88355 q 0.0448,0.43409 0.3135,0.65113 0.26872,0.21704 0.75104,0.21704 0.38929,0 0.79581,-0.11369 0.40997,-0.11713 0.84061,-0.3514 v 0.95085 q -0.43753,0.16536 -0.87506,0.24804 -0.43753,0.0861 -0.87505,0.0861 -1.04731,0 -1.62953,-0.53054 -0.57878,-0.53399 -0.57878,-1.49518 0,-0.94395 0.56844,-1.48483 0.57189,-0.54088 1.57097,-0.54088 0.9095,0 1.45383,0.54777 0.54777,0.54777 0.54777,1.46416 z m -1.2678,-0.40996 q 0,-0.3514 -0.20671,-0.565 -0.20326,-0.21704 -0.53399,-0.21704 -0.35829,0 -0.58222,0.20326 -0.22393,0.19982 -0.27905,0.57878 z"
         style="font-style:normal;font-variant:normal;font-weight:bold;font-stretch:normal;font-size:7.05555534px;line-height:54.10001278%;font-family:sans-serif;-inkscape-font-specification:'sans-serif Bold';text-align:center;text-anchor:middle;fill:#ffffff;stroke-width:0.26458332px"
         id="path6382" />
      <path
         d="m 202.76113,265.37589 v -2.06706 h 1.24024 v 5.36057 h -1.24024 v -0.5581 q -0.25493,0.34106 -0.56155,0.49954 -0.30661,0.15847 -0.70969,0.15847 -0.71313,0 -1.17133,-0.56499 -0.4582,-0.56845 -0.4582,-1.46073 0,-0.89227 0.4582,-1.45727 0.4582,-0.56844 1.17133,-0.56844 0.39963,0 0.70625,0.16192 0.31006,0.15847 0.56499,0.49609 z m -0.81304,2.4977 q 0.39619,0 0.60289,-0.28939 0.21015,-0.28939 0.21015,-0.84061 0,-0.55121 -0.21015,-0.8406 -0.2067,-0.28939 -0.60289,-0.28939 -0.39274,0 -0.60289,0.28939 -0.20671,0.28939 -0.20671,0.8406 0,0.55122 0.20671,0.84061 0.21015,0.28939 0.60289,0.28939 z"
         style="font-style:normal;font-variant:normal;font-weight:bold;font-stretch:normal;font-size:7.05555534px;line-height:54.10001278%;font-family:sans-serif;-inkscape-font-specification:'sans-serif Bold';text-align:center;text-anchor:middle;fill:#ffffff;stroke-width:0.26458332px"
         id="path6384" />
      <path
         d="m 205.16581,269.59958 q 0.44097,-0.81993 0.66146,-1.60197 0.22048,-0.78204 0.22048,-1.5434 0,-0.76137 -0.22048,-1.53996 -0.22049,-0.78204 -0.66146,-1.59853 h 1.02319 q 0.52366,0.84405 0.77515,1.6192 0.25494,0.7717 0.25494,1.52618 0,0.75447 -0.2515,1.52273 -0.25149,0.76481 -0.77859,1.61575 z"
         style="font-style:normal;font-variant:normal;font-weight:bold;font-stretch:normal;font-size:7.05555534px;line-height:54.10001278%;font-family:sans-serif;-inkscape-font-specification:'sans-serif Bold';text-align:center;text-anchor:middle;fill:#ffffff;stroke-width:0.26458332px"
         id="path6386" />
    </g>
  </g>
</svg>
