<?xml version="1.0" encoding="UTF-8" standalone="no"?>
<!-- Created with Inkscape (http://www.inkscape.org/) -->

<svg
   xmlns:osb="http://www.openswatchbook.org/uri/2009/osb"
   xmlns:dc="http://purl.org/dc/elements/1.1/"
   xmlns:cc="http://creativecommons.org/ns#"
   xmlns:rdf="http://www.w3.org/1999/02/22-rdf-syntax-ns#"
   xmlns:svg="http://www.w3.org/2000/svg"
   xmlns="http://www.w3.org/2000/svg"
   xmlns:xlink="http://www.w3.org/1999/xlink"
   xmlns:sodipodi="http://sodipodi.sourceforge.net/DTD/sodipodi-0.dtd"
   xmlns:inkscape="http://www.inkscape.org/namespaces/inkscape"
   width="800"
   height="700"
   viewBox="0 0 211.66666 185.20835"
   version="1.1"
   id="svg5212"
   inkscape:version="0.92.1 r"
   sodipodi:docname="model2-compat.svg">
  <defs
     id="defs5206">
    <marker
       inkscape:stockid="Arrow2Lstart"
       orient="auto"
       refY="0.0"
       refX="0.0"
       id="Arrow2Lstart"
       style="overflow:visible"
       inkscape:isstock="true">
      <path
         id="path9846"
         style="fill-rule:evenodd;stroke-width:0.625;stroke-linejoin:round;stroke:#ff0000;stroke-opacity:1;fill:#ffffff;fill-opacity:1"
         d="M 8.7185878,4.0337352 L -2.2072895,0.016013256 L 8.7185884,-4.0017078 C 6.9730900,-1.6296469 6.9831476,1.6157441 8.7185878,4.0337352 z "
         transform="scale(1.1) translate(1,0)" />
    </marker>
    <marker
       inkscape:stockid="Arrow1Lstart"
       orient="auto"
       refY="0.0"
       refX="0.0"
       id="marker10448"
       style="overflow:visible"
       inkscape:isstock="true">
      <path
         id="path10446"
         d="M 0.0,0.0 L 5.0,-5.0 L -12.5,0.0 L 5.0,5.0 L 0.0,0.0 z "
         style="fill-rule:evenodd;stroke:#ff0000;stroke-width:1pt;stroke-opacity:1;fill:#ffffff;fill-opacity:1"
         transform="scale(0.8) translate(12.5,0)" />
    </marker>
    <marker
       inkscape:stockid="Arrow1Lstart"
       orient="auto"
       refY="0.0"
       refX="0.0"
       id="Arrow1Lstart"
       style="overflow:visible"
       inkscape:isstock="true">
      <path
         id="path9828"
         d="M 0.0,0.0 L 5.0,-5.0 L -12.5,0.0 L 5.0,5.0 L 0.0,0.0 z "
         style="fill-rule:evenodd;stroke:#ff0000;stroke-width:1pt;stroke-opacity:1;fill:#ffffff;fill-opacity:1"
         transform="scale(0.8) translate(12.5,0)" />
    </marker>
    <linearGradient
       id="linearGradient5786"
       osb:paint="solid">
      <stop
         style="stop-color:#ffffff;stop-opacity:1;"
         offset="0"
         id="stop5784" />
    </linearGradient>
    <linearGradient
       id="linearGradient5780"
       osb:paint="solid">
      <stop
         style="stop-color:#0000ff;stop-opacity:1;"
         offset="0"
         id="stop5778" />
    </linearGradient>
    <linearGradient
       inkscape:collect="always"
       xlink:href="#linearGradient5786"
       id="linearGradient5788"
       x1="22.183371"
       y1="184.21223"
       x2="65.748299"
       y2="184.21223"
       gradientUnits="userSpaceOnUse"
       gradientTransform="matrix(1.2924406,0,0,1.7492601,-20.07166,-92.803044)" />
    <linearGradient
       inkscape:collect="always"
       xlink:href="#linearGradient5786"
       id="linearGradient5788-3"
       x1="22.183371"
       y1="184.21223"
       x2="65.748299"
       y2="184.21223"
       gradientUnits="userSpaceOnUse"
       gradientTransform="matrix(1.2924406,0,0,1.7492601,50.30031,-92.567956)" />
    <linearGradient
       inkscape:collect="always"
       xlink:href="#linearGradient5786"
       id="linearGradient5788-5"
       x1="22.183371"
       y1="184.21223"
       x2="65.748299"
       y2="184.21223"
       gradientUnits="userSpaceOnUse"
       gradientTransform="matrix(1.2924406,0,0,1.7492601,120.27975,-92.567956)" />
    <linearGradient
       inkscape:collect="always"
       xlink:href="#linearGradient5786"
       id="linearGradient5788-6"
       x1="22.183371"
       y1="184.21223"
       x2="65.748299"
       y2="184.21223"
       gradientUnits="userSpaceOnUse"
       gradientTransform="matrix(4.5571079,0,0,0.52282252,-93.98376,183.06077)" />
    <linearGradient
       inkscape:collect="always"
       xlink:href="#linearGradient5780"
       id="linearGradient5788-2"
       x1="22.183371"
       y1="184.21223"
       x2="65.748299"
       y2="184.21223"
       gradientUnits="userSpaceOnUse"
       gradientTransform="matrix(0.77019739,0,0,0.92036152,34.424999,4.6477742)" />
    <linearGradient
       inkscape:collect="always"
       xlink:href="#linearGradient5780"
       id="linearGradient5788-2-8"
       x1="22.183371"
       y1="184.21223"
       x2="65.748299"
       y2="184.21223"
       gradientUnits="userSpaceOnUse"
       gradientTransform="matrix(1.452491,0,0,0.90572098,79.530137,8.5474342)" />
    <linearGradient
       inkscape:collect="always"
       xlink:href="#linearGradient4993"
       id="linearGradient4702-2"
       gradientUnits="userSpaceOnUse"
       gradientTransform="matrix(-0.3303065,0.29765089,-0.25445537,-0.28754112,138.80799,202.3373)"
       x1="118.1677"
       y1="168.86755"
       x2="177.2849"
       y2="168.86755" />
    <linearGradient
       id="linearGradient4993"
       osb:paint="solid">
      <stop
         style="stop-color:#d13030;stop-opacity:1;"
         offset="0"
         id="stop4991" />
    </linearGradient>
    <linearGradient
       inkscape:collect="always"
       xlink:href="#linearGradient4993"
       id="linearGradient4702-2-7"
       gradientUnits="userSpaceOnUse"
       gradientTransform="matrix(-0.91655612,0.38663829,-0.12315574,-0.3735231,239.95947,201.61023)"
       x1="118.1677"
       y1="168.86755"
       x2="177.2849"
       y2="168.86755" />
  </defs>
  <sodipodi:namedview
     id="base"
     pagecolor="#000000"
     bordercolor="#666666"
     borderopacity="1.0"
     inkscape:pageopacity="0"
     inkscape:pageshadow="2"
     inkscape:zoom="1"
     inkscape:cx="393.68959"
     inkscape:cy="315.47613"
     inkscape:document-units="mm"
     inkscape:current-layer="layer1"
     showgrid="false"
     units="px"
     inkscape:window-width="1581"
     inkscape:window-height="1049"
     inkscape:window-x="331"
     inkscape:window-y="23"
     inkscape:window-maximized="0" />
  <metadata
     id="metadata5209">
    <rdf:RDF>
      <cc:Work
         rdf:about="">
        <dc:format>image/svg+xml</dc:format>
        <dc:type
           rdf:resource="http://purl.org/dc/dcmitype/StillImage" />
        <dc:title></dc:title>
      </cc:Work>
    </rdf:RDF>
  </metadata>
  <g
     inkscape:label="Layer 1"
     inkscape:groupmode="layer"
     id="layer1"
     transform="translate(0,-111.79164)">
    <rect
       style="fill:#ff0000;fill-opacity:0.26666667;stroke:url(#linearGradient5788);stroke-width:2.35313511;stroke-miterlimit:4;stroke-dasharray:4.70626995, 4.70626995;stroke-dashoffset:0"
       id="rect5776"
       width="56.30508"
       height="57.037914"
       x="8.5990229"
       y="200.91312" />
    <rect
       style="fill:#ff0000;fill-opacity:0.26666667;stroke:url(#linearGradient5788-3);stroke-width:2.35313511;stroke-miterlimit:4;stroke-dasharray:4.70627001, 4.70627001;stroke-dashoffset:0"
       id="rect5776-7"
       width="56.30508"
       height="57.037914"
       x="78.971001"
       y="201.14819" />
    <rect
       style="fill:#ff0000;fill-opacity:0.26666667;stroke:url(#linearGradient5788-5);stroke-width:2.35313511;stroke-miterlimit:4;stroke-dasharray:4.70627001, 4.70627001;stroke-dashoffset:0"
       id="rect5776-5"
       width="56.30508"
       height="57.037914"
       x="148.95049"
       y="201.14819" />
    <rect
       style="fill:#00ff00;fill-opacity:0.20784314;stroke:url(#linearGradient5788-6);stroke-width:2.41566205;stroke-miterlimit:4;stroke-dasharray:4.8313238, 4.8313238;stroke-dashoffset:0"
       id="rect5776-9"
       width="198.53009"
       height="17.047611"
       x="7.1082373"
       y="270.84732" />
    <g
       aria-label="TASK A"
       transform="matrix(0.38093245,0,0,0.36411798,-18.429746,174.81102)"
       style="font-style:normal;font-weight:normal;font-size:40px;line-height:125%;font-family:sans-serif;letter-spacing:0px;word-spacing:0px;fill:#000000;fill-opacity:1;stroke:none;stroke-width:1px;stroke-linecap:butt;stroke-linejoin:miter;stroke-opacity:1"
       id="flowRoot5854">
      <path
         d="m 89.884766,114.28711 h 26.875004 v 5.68359 h -9.66797 v 23.47657 H 99.572266 V 119.9707 h -9.6875 z"
         style="font-style:normal;font-variant:normal;font-weight:bold;font-stretch:normal;font-family:sans-serif;-inkscape-font-specification:'sans-serif Bold';text-align:center;text-anchor:middle;fill:#ffffff;fill-opacity:1"
         id="path10944" />
      <path
         d="m 135.19727,138.13477 h -11.75782 l -1.85547,5.3125 h -7.55859 l 10.80078,-29.16016 h 8.96485 l 10.80078,29.16016 h -7.5586 z m -9.88282,-5.41016 h 7.98828 l -3.98437,-11.60156 z"
         style="font-style:normal;font-variant:normal;font-weight:bold;font-stretch:normal;font-family:sans-serif;-inkscape-font-specification:'sans-serif Bold';text-align:center;text-anchor:middle;fill:#ffffff;fill-opacity:1"
         id="path10946" />
      <path
         d="m 168.73242,115.20508 v 6.17187 q -2.40234,-1.07422 -4.6875,-1.62109 -2.28515,-0.54688 -4.3164,-0.54688 -2.69532,0 -3.98438,0.74219 -1.28906,0.74219 -1.28906,2.30469 0,1.17187 0.85937,1.83594 0.87891,0.64453 3.16407,1.11328 l 3.20312,0.64453 q 4.86328,0.97656 6.91406,2.96875 2.05078,1.99219 2.05078,5.66406 0,4.82422 -2.87109,7.1875 -2.85156,2.34375 -8.73047,2.34375 -2.77344,0 -5.5664,-0.52734 -2.79297,-0.52735 -5.58594,-1.5625 v -6.34766 q 2.79297,1.48438 5.39062,2.2461 2.61719,0.74218 5.03907,0.74218 2.46093,0 3.76953,-0.82031 1.30859,-0.82031 1.30859,-2.34375 0,-1.36719 -0.89844,-2.10937 -0.8789,-0.74219 -3.53515,-1.32813 l -2.91016,-0.64453 q -4.375,-0.9375 -6.40625,-2.98828 -2.01172,-2.05078 -2.01172,-5.52735 0,-4.35546 2.8125,-6.69921 2.8125,-2.34375 8.08594,-2.34375 2.40234,0 4.94141,0.37109 2.53906,0.35156 5.2539,1.07422 z"
         style="font-style:normal;font-variant:normal;font-weight:bold;font-stretch:normal;font-family:sans-serif;-inkscape-font-specification:'sans-serif Bold';text-align:center;text-anchor:middle;fill:#ffffff;fill-opacity:1"
         id="path10948" />
      <path
         d="m 177.26758,114.28711 h 7.51953 v 10.64453 l 10.83984,-10.64453 h 8.73047 l -14.04297,13.80859 15.48828,15.35157 h -9.41406 l -11.60156,-11.48438 v 11.48438 h -7.51953 z"
         style="font-style:normal;font-variant:normal;font-weight:bold;font-stretch:normal;font-family:sans-serif;-inkscape-font-specification:'sans-serif Bold';text-align:center;text-anchor:middle;fill:#ffffff;fill-opacity:1"
         id="path10950" />
      <path
         d="m 153.04883,188.13477 h -11.75781 l -1.85547,5.3125 h -7.5586 l 10.80078,-29.16016 h 8.96485 l 10.80078,29.16016 h -7.55859 z m -9.88281,-5.41016 h 7.98828 l -3.98438,-11.60156 z"
         style="font-style:normal;font-variant:normal;font-weight:bold;font-stretch:normal;font-family:sans-serif;-inkscape-font-specification:'sans-serif Bold';text-align:center;text-anchor:middle;fill:#ffffff;fill-opacity:1"
         id="path10952" />
    </g>
    <g
       aria-label="TASK B"
       transform="matrix(0.38093245,0,0,0.36411798,50.311738,174.41009)"
       style="font-style:normal;font-weight:normal;font-size:40px;line-height:125%;font-family:sans-serif;letter-spacing:0px;word-spacing:0px;fill:#000000;fill-opacity:1;stroke:none;stroke-width:1px;stroke-linecap:butt;stroke-linejoin:miter;stroke-opacity:1"
       id="flowRoot5854-1">
      <path
         d="m 89.884766,114.28711 h 26.875004 v 5.68359 h -9.66797 v 23.47657 H 99.572266 V 119.9707 h -9.6875 z"
         style="font-style:normal;font-variant:normal;font-weight:bold;font-stretch:normal;font-family:sans-serif;-inkscape-font-specification:'sans-serif Bold';text-align:center;text-anchor:middle;fill:#ffffff;fill-opacity:1"
         id="path10933" />
      <path
         d="m 135.19727,138.13477 h -11.75782 l -1.85547,5.3125 h -7.55859 l 10.80078,-29.16016 h 8.96485 l 10.80078,29.16016 h -7.5586 z m -9.88282,-5.41016 h 7.98828 l -3.98437,-11.60156 z"
         style="font-style:normal;font-variant:normal;font-weight:bold;font-stretch:normal;font-family:sans-serif;-inkscape-font-specification:'sans-serif Bold';text-align:center;text-anchor:middle;fill:#ffffff;fill-opacity:1"
         id="path10935" />
      <path
         d="m 168.73242,115.20508 v 6.17187 q -2.40234,-1.07422 -4.6875,-1.62109 -2.28515,-0.54688 -4.3164,-0.54688 -2.69532,0 -3.98438,0.74219 -1.28906,0.74219 -1.28906,2.30469 0,1.17187 0.85937,1.83594 0.87891,0.64453 3.16407,1.11328 l 3.20312,0.64453 q 4.86328,0.97656 6.91406,2.96875 2.05078,1.99219 2.05078,5.66406 0,4.82422 -2.87109,7.1875 -2.85156,2.34375 -8.73047,2.34375 -2.77344,0 -5.5664,-0.52734 -2.79297,-0.52735 -5.58594,-1.5625 v -6.34766 q 2.79297,1.48438 5.39062,2.2461 2.61719,0.74218 5.03907,0.74218 2.46093,0 3.76953,-0.82031 1.30859,-0.82031 1.30859,-2.34375 0,-1.36719 -0.89844,-2.10937 -0.8789,-0.74219 -3.53515,-1.32813 l -2.91016,-0.64453 q -4.375,-0.9375 -6.40625,-2.98828 -2.01172,-2.05078 -2.01172,-5.52735 0,-4.35546 2.8125,-6.69921 2.8125,-2.34375 8.08594,-2.34375 2.40234,0 4.94141,0.37109 2.53906,0.35156 5.2539,1.07422 z"
         style="font-style:normal;font-variant:normal;font-weight:bold;font-stretch:normal;font-family:sans-serif;-inkscape-font-specification:'sans-serif Bold';text-align:center;text-anchor:middle;fill:#ffffff;fill-opacity:1"
         id="path10937" />
      <path
         d="m 177.26758,114.28711 h 7.51953 v 10.64453 l 10.83984,-10.64453 h 8.73047 l -14.04297,13.80859 15.48828,15.35157 h -9.41406 l -11.60156,-11.48438 v 11.48438 h -7.51953 z"
         style="font-style:normal;font-variant:normal;font-weight:bold;font-stretch:normal;font-family:sans-serif;-inkscape-font-specification:'sans-serif Bold';text-align:center;text-anchor:middle;fill:#ffffff;fill-opacity:1"
         id="path10939" />
      <path
         d="m 147.26758,175.57617 q 1.77734,0 2.69531,-0.78125 0.91797,-0.78125 0.91797,-2.30469 0,-1.5039 -0.91797,-2.28515 -0.91797,-0.80078 -2.69531,-0.80078 h -4.16016 v 6.17187 z m 0.2539,12.75391 q 2.26563,0 3.39844,-0.95703 1.15235,-0.95703 1.15235,-2.89063 0,-1.89453 -1.13282,-2.83203 -1.13281,-0.95703 -3.41797,-0.95703 h -4.41406 v 7.63672 z m 6.99219,-10.48828 q 2.42188,0.70312 3.75,2.59765 1.32813,1.89453 1.32813,4.64844 0,4.21875 -2.85157,6.28906 -2.85156,2.07032 -8.67187,2.07032 h -12.48047 v -29.16016 h 11.28906 q 6.07422,0 8.78907,1.83594 2.73437,1.83593 2.73437,5.8789 0,2.12891 -0.99609,3.63282 -0.9961,1.48437 -2.89063,2.20703 z"
         style="font-style:normal;font-variant:normal;font-weight:bold;font-stretch:normal;font-family:sans-serif;-inkscape-font-specification:'sans-serif Bold';text-align:center;text-anchor:middle;fill:#ffffff;fill-opacity:1"
         id="path10941" />
    </g>
    <g
       aria-label="TASK C"
       transform="matrix(0.38093245,0,0,0.36411798,121.11492,174.04229)"
       style="font-style:normal;font-weight:normal;font-size:40px;line-height:125%;font-family:sans-serif;letter-spacing:0px;word-spacing:0px;fill:#000000;fill-opacity:1;stroke:none;stroke-width:1px;stroke-linecap:butt;stroke-linejoin:miter;stroke-opacity:1"
       id="flowRoot5854-9">
      <path
         d="m 89.884766,114.28711 h 26.875004 v 5.68359 h -9.66797 v 23.47657 H 99.572266 V 119.9707 h -9.6875 z"
         style="font-style:normal;font-variant:normal;font-weight:bold;font-stretch:normal;font-family:sans-serif;-inkscape-font-specification:'sans-serif Bold';text-align:center;text-anchor:middle;fill:#ffffff;fill-opacity:1"
         id="path10922" />
      <path
         d="m 135.19727,138.13477 h -11.75782 l -1.85547,5.3125 h -7.55859 l 10.80078,-29.16016 h 8.96485 l 10.80078,29.16016 h -7.5586 z m -9.88282,-5.41016 h 7.98828 l -3.98437,-11.60156 z"
         style="font-style:normal;font-variant:normal;font-weight:bold;font-stretch:normal;font-family:sans-serif;-inkscape-font-specification:'sans-serif Bold';text-align:center;text-anchor:middle;fill:#ffffff;fill-opacity:1"
         id="path10924" />
      <path
         d="m 168.73242,115.20508 v 6.17187 q -2.40234,-1.07422 -4.6875,-1.62109 -2.28515,-0.54688 -4.3164,-0.54688 -2.69532,0 -3.98438,0.74219 -1.28906,0.74219 -1.28906,2.30469 0,1.17187 0.85937,1.83594 0.87891,0.64453 3.16407,1.11328 l 3.20312,0.64453 q 4.86328,0.97656 6.91406,2.96875 2.05078,1.99219 2.05078,5.66406 0,4.82422 -2.87109,7.1875 -2.85156,2.34375 -8.73047,2.34375 -2.77344,0 -5.5664,-0.52734 -2.79297,-0.52735 -5.58594,-1.5625 v -6.34766 q 2.79297,1.48438 5.39062,2.2461 2.61719,0.74218 5.03907,0.74218 2.46093,0 3.76953,-0.82031 1.30859,-0.82031 1.30859,-2.34375 0,-1.36719 -0.89844,-2.10937 -0.8789,-0.74219 -3.53515,-1.32813 l -2.91016,-0.64453 q -4.375,-0.9375 -6.40625,-2.98828 -2.01172,-2.05078 -2.01172,-5.52735 0,-4.35546 2.8125,-6.69921 2.8125,-2.34375 8.08594,-2.34375 2.40234,0 4.94141,0.37109 2.53906,0.35156 5.2539,1.07422 z"
         style="font-style:normal;font-variant:normal;font-weight:bold;font-stretch:normal;font-family:sans-serif;-inkscape-font-specification:'sans-serif Bold';text-align:center;text-anchor:middle;fill:#ffffff;fill-opacity:1"
         id="path10926" />
      <path
         d="m 177.26758,114.28711 h 7.51953 v 10.64453 l 10.83984,-10.64453 h 8.73047 l -14.04297,13.80859 15.48828,15.35157 h -9.41406 l -11.60156,-11.48438 v 11.48438 h -7.51953 z"
         style="font-style:normal;font-variant:normal;font-weight:bold;font-stretch:normal;font-family:sans-serif;-inkscape-font-specification:'sans-serif Bold';text-align:center;text-anchor:middle;fill:#ffffff;fill-opacity:1"
         id="path10928" />
      <path
         d="m 159.25977,191.8457 q -2.07032,1.07422 -4.31641,1.6211 -2.24609,0.54687 -4.6875,0.54687 -7.28516,0 -11.54297,-4.0625 -4.25781,-4.08203 -4.25781,-11.05469 0,-6.99218 4.25781,-11.05468 4.25781,-4.08203 11.54297,-4.08203 2.44141,0 4.6875,0.54687 2.24609,0.54688 4.31641,1.62109 v 6.03516 q -2.08985,-1.42578 -4.1211,-2.08984 -2.03125,-0.66407 -4.27734,-0.66407 -4.02344,0 -6.32813,2.57813 -2.30468,2.57812 -2.30468,7.10937 0,4.51172 2.30468,7.08985 2.30469,2.57812 6.32813,2.57812 2.24609,0 4.27734,-0.66406 2.03125,-0.66406 4.1211,-2.08984 z"
         style="font-style:normal;font-variant:normal;font-weight:bold;font-stretch:normal;font-family:sans-serif;-inkscape-font-specification:'sans-serif Bold';text-align:center;text-anchor:middle;fill:#ffffff;fill-opacity:1"
         id="path10930" />
    </g>
    <g
       aria-label="eChronos 'kernel'"
       transform="matrix(0.38352043,0,0,0.36332737,-32.514699,186.51977)"
       style="font-style:normal;font-weight:normal;font-size:40px;line-height:125%;font-family:sans-serif;letter-spacing:0px;word-spacing:0px;fill:#000000;fill-opacity:1;stroke:none;stroke-width:1px;stroke-linecap:butt;stroke-linejoin:miter;stroke-opacity:1"
       id="flowRoot5898">
      <path
         d="m 255.19336,257.33333 v 1.32813 h -10.89844 q 0.16927,1.64062 1.1849,2.46094 1.01562,0.82031 2.83854,0.82031 1.47135,0 3.00781,-0.42969 1.54948,-0.44271 3.17709,-1.32812 v 3.59375 q -1.65365,0.625 -3.3073,0.9375 -1.65364,0.32552 -3.30729,0.32552 -3.95833,0 -6.15885,-2.00521 -2.1875,-2.01823 -2.1875,-5.65104 0,-3.56771 2.14844,-5.61198 2.16145,-2.04427 5.9375,-2.04427 3.4375,0 5.49479,2.07031 2.07031,2.07031 2.07031,5.53385 z m -4.79167,-1.54948 q 0,-1.32812 -0.78125,-2.13541 -0.76823,-0.82032 -2.01823,-0.82032 -1.35416,0 -2.20052,0.76823 -0.84635,0.75521 -1.05468,2.1875 z"
         style="font-style:normal;font-variant:normal;font-weight:bold;font-stretch:normal;font-size:26.66666794px;font-family:sans-serif;-inkscape-font-specification:'sans-serif Bold';fill:#ffffff;fill-opacity:1"
         id="path10889" />
      <path
         d="m 274.33399,263.59635 q -1.38021,0.71615 -2.87761,1.08073 -1.49739,0.36459 -3.125,0.36459 -4.85677,0 -7.69531,-2.70834 -2.83854,-2.72135 -2.83854,-7.36979 0,-4.66146 2.83854,-7.36979 2.83854,-2.72136 7.69531,-2.72136 1.62761,0 3.125,0.36459 1.4974,0.36458 2.87761,1.08073 v 4.02344 q -1.39323,-0.95053 -2.7474,-1.39323 -1.35417,-0.44271 -2.85156,-0.44271 -2.68229,0 -4.21875,1.71875 -1.53646,1.71875 -1.53646,4.73958 0,3.00781 1.53646,4.72656 1.53646,1.71875 4.21875,1.71875 1.49739,0 2.85156,-0.4427 1.35417,-0.44271 2.7474,-1.39323 z"
         style="font-style:normal;font-variant:normal;font-weight:bold;font-stretch:normal;font-size:26.66666794px;font-family:sans-serif;-inkscape-font-specification:'sans-serif Bold';fill:#ffffff;fill-opacity:1"
         id="path10891" />
      <path
         d="m 292.95378,255.78385 v 8.88021 h -4.6875 v -1.44531 -5.32552 q 0,-1.91406 -0.0911,-2.63021 -0.0781,-0.71615 -0.28646,-1.05469 -0.27344,-0.45573 -0.74219,-0.70312 -0.46875,-0.26042 -1.0677,-0.26042 -1.45834,0 -2.29167,1.13281 -0.83333,1.1198 -0.83333,3.11198 v 7.17448 h -4.66146 v -20.26042 h 4.66146 v 7.81251 q 1.05468,-1.27605 2.23958,-1.875 1.1849,-0.61198 2.61719,-0.61198 2.52604,0 3.82812,1.54948 1.31511,1.54947 1.31511,4.5052 z"
         style="font-style:normal;font-variant:normal;font-weight:bold;font-stretch:normal;font-size:26.66666794px;font-family:sans-serif;-inkscape-font-specification:'sans-serif Bold';fill:#ffffff;fill-opacity:1"
         id="path10893" />
      <path
         d="m 308.13607,254.05208 q -0.61198,-0.28646 -1.22395,-0.41666 -0.59896,-0.14323 -1.21094,-0.14323 -1.79688,0 -2.77344,1.15885 -0.96354,1.14583 -0.96354,3.29427 v 6.71875 h -4.66146 v -14.58333 h 4.66146 v 2.39583 q 0.89844,-1.43229 2.05729,-2.08333 1.17187,-0.66406 2.79948,-0.66406 0.23437,0 0.50781,0.026 0.27344,0.013 0.79427,0.0781 z"
         style="font-style:normal;font-variant:normal;font-weight:bold;font-stretch:normal;font-size:26.66666794px;font-family:sans-serif;-inkscape-font-specification:'sans-serif Bold';fill:#ffffff;fill-opacity:1"
         id="path10895" />
      <path
         d="m 317.41992,253.0625 q -1.54948,0 -2.36979,1.11979 -0.80729,1.10677 -0.80729,3.20313 0,2.09635 0.80729,3.21614 0.82031,1.10677 2.36979,1.10677 1.52344,0 2.33073,-1.10677 0.80729,-1.11979 0.80729,-3.21614 0,-2.09636 -0.80729,-3.20313 -0.80729,-1.11979 -2.33073,-1.11979 z m 0,-3.33333 q 3.76302,0 5.8724,2.03125 2.12239,2.03125 2.12239,5.625 0,3.59375 -2.12239,5.625 -2.10938,2.03125 -5.8724,2.03125 -3.77604,0 -5.91146,-2.03125 -2.12239,-2.03125 -2.12239,-5.625 0,-3.59375 2.12239,-5.625 2.13542,-2.03125 5.91146,-2.03125 z"
         style="font-style:normal;font-variant:normal;font-weight:bold;font-stretch:normal;font-size:26.66666794px;font-family:sans-serif;-inkscape-font-specification:'sans-serif Bold';fill:#ffffff;fill-opacity:1"
         id="path10897" />
      <path
         d="m 343.47461,255.78385 v 8.88021 h -4.6875 v -1.44531 -5.35156 q 0,-1.88802 -0.0911,-2.60417 -0.0781,-0.71615 -0.28646,-1.05469 -0.27344,-0.45573 -0.74219,-0.70312 -0.46875,-0.26042 -1.06771,-0.26042 -1.45833,0 -2.29166,1.13281 -0.83334,1.1198 -0.83334,3.11198 v 7.17448 h -4.66146 v -14.58333 h 4.66146 v 2.13542 q 1.05469,-1.27605 2.23959,-1.875 1.18489,-0.61198 2.61718,-0.61198 2.52605,0 3.82813,1.54948 1.3151,1.54947 1.3151,4.5052 z"
         style="font-style:normal;font-variant:normal;font-weight:bold;font-stretch:normal;font-size:26.66666794px;font-family:sans-serif;-inkscape-font-specification:'sans-serif Bold';fill:#ffffff;fill-opacity:1"
         id="path10899" />
      <path
         d="m 354.76368,253.0625 q -1.54948,0 -2.36979,1.11979 -0.80729,1.10677 -0.80729,3.20313 0,2.09635 0.80729,3.21614 0.82031,1.10677 2.36979,1.10677 1.52344,0 2.33073,-1.10677 0.80729,-1.11979 0.80729,-3.21614 0,-2.09636 -0.80729,-3.20313 -0.80729,-1.11979 -2.33073,-1.11979 z m 0,-3.33333 q 3.76302,0 5.8724,2.03125 2.12239,2.03125 2.12239,5.625 0,3.59375 -2.12239,5.625 -2.10938,2.03125 -5.8724,2.03125 -3.77604,0 -5.91146,-2.03125 -2.12239,-2.03125 -2.12239,-5.625 0,-3.59375 2.12239,-5.625 2.13542,-2.03125 5.91146,-2.03125 z"
         style="font-style:normal;font-variant:normal;font-weight:bold;font-stretch:normal;font-size:26.66666794px;font-family:sans-serif;-inkscape-font-specification:'sans-serif Bold';fill:#ffffff;fill-opacity:1"
         id="path10901" />
      <path
         d="m 377.55014,250.53646 v 3.54166 q -1.49739,-0.625 -2.89062,-0.9375 -1.39323,-0.3125 -2.63021,-0.3125 -1.32813,0 -1.97917,0.33855 -0.63802,0.32552 -0.63802,1.01562 0,0.5599 0.48177,0.85938 0.49479,0.29948 1.75781,0.4427 l 0.82032,0.11719 q 3.58073,0.45573 4.8177,1.4974 1.23698,1.04166 1.23698,3.26823 0,2.33073 -1.71875,3.5026 -1.71875,1.17188 -5.13021,1.17188 -1.44531,0 -2.99479,-0.23438 -1.53646,-0.22135 -3.16406,-0.67708 v -3.54167 q 1.39323,0.67708 2.85156,1.01563 1.47136,0.33854 2.98177,0.33854 1.36719,0 2.0573,-0.37761 0.6901,-0.3776 0.6901,-1.11979 0,-0.625 -0.48177,-0.92448 -0.46875,-0.3125 -1.88802,-0.48177 l -0.82031,-0.10416 q -3.11198,-0.39063 -4.36198,-1.44532 -1.25,-1.05468 -1.25,-3.20312 0,-2.31771 1.58854,-3.4375 1.58854,-1.11979 4.86979,-1.11979 1.28906,0 2.70833,0.19531 1.41927,0.19531 3.08594,0.61198 z"
         style="font-style:normal;font-variant:normal;font-weight:bold;font-stretch:normal;font-size:26.66666794px;font-family:sans-serif;-inkscape-font-specification:'sans-serif Bold';fill:#ffffff;fill-opacity:1"
         id="path10903" />
      <path
         d="m 394.69858,245.22396 v 7.22656 h -3.08594 v -7.22656 z"
         style="font-style:normal;font-variant:normal;font-weight:bold;font-stretch:normal;font-size:26.66666794px;font-family:sans-serif;-inkscape-font-specification:'sans-serif Bold';fill:#ffffff;fill-opacity:1"
         id="path10905" />
      <path
         d="m 399.49024,244.40364 h 4.66146 v 11.02865 l 5.36458,-5.35156 h 5.41667 l -7.1224,6.69271 7.68229,7.89062 h -5.65104 l -5.6901,-6.08073 v 6.08073 h -4.66146 z"
         style="font-style:normal;font-variant:normal;font-weight:bold;font-stretch:normal;font-size:26.66666794px;font-family:sans-serif;-inkscape-font-specification:'sans-serif Bold';fill:#ffffff;fill-opacity:1"
         id="path10907" />
      <path
         d="m 431.07878,257.33333 v 1.32813 h -10.89844 q 0.16927,1.64062 1.1849,2.46094 1.01562,0.82031 2.83854,0.82031 1.47136,0 3.00781,-0.42969 1.54948,-0.44271 3.17709,-1.32812 v 3.59375 q -1.65365,0.625 -3.30729,0.9375 -1.65365,0.32552 -3.3073,0.32552 -3.95833,0 -6.15885,-2.00521 -2.1875,-2.01823 -2.1875,-5.65104 0,-3.56771 2.14844,-5.61198 2.16146,-2.04427 5.9375,-2.04427 3.4375,0 5.49479,2.07031 2.07031,2.07031 2.07031,5.53385 z m -4.79166,-1.54948 q 0,-1.32812 -0.78126,-2.13541 -0.76822,-0.82032 -2.01822,-0.82032 -1.35417,0 -2.20053,0.76823 -0.84635,0.75521 -1.05468,2.1875 z"
         style="font-style:normal;font-variant:normal;font-weight:bold;font-stretch:normal;font-size:26.66666794px;font-family:sans-serif;-inkscape-font-specification:'sans-serif Bold';fill:#ffffff;fill-opacity:1"
         id="path10909" />
      <path
         d="m 445.42775,254.05208 q -0.61198,-0.28646 -1.22396,-0.41666 -0.59896,-0.14323 -1.21094,-0.14323 -1.79688,0 -2.77344,1.15885 -0.96354,1.14583 -0.96354,3.29427 v 6.71875 h -4.66146 v -14.58333 h 4.66146 v 2.39583 q 0.89844,-1.43229 2.05729,-2.08333 1.17188,-0.66406 2.79948,-0.66406 0.23438,0 0.50781,0.026 0.27344,0.013 0.79427,0.0781 z"
         style="font-style:normal;font-variant:normal;font-weight:bold;font-stretch:normal;font-size:26.66666794px;font-family:sans-serif;-inkscape-font-specification:'sans-serif Bold';fill:#ffffff;fill-opacity:1"
         id="path10911" />
      <path
         d="m 462.43295,255.78385 v 8.88021 h -4.6875 v -1.44531 -5.35156 q 0,-1.88802 -0.0912,-2.60417 -0.0781,-0.71615 -0.28646,-1.05469 -0.27343,-0.45573 -0.74218,-0.70312 -0.46875,-0.26042 -1.06771,-0.26042 -1.45834,0 -2.29167,1.13281 -0.83333,1.1198 -0.83333,3.11198 v 7.17448 h -4.66146 v -14.58333 h 4.66146 v 2.13542 q 1.05469,-1.27605 2.23958,-1.875 1.1849,-0.61198 2.61719,-0.61198 2.52604,0 3.82812,1.54948 1.31511,1.54947 1.31511,4.5052 z"
         style="font-style:normal;font-variant:normal;font-weight:bold;font-stretch:normal;font-size:26.66666794px;font-family:sans-serif;-inkscape-font-specification:'sans-serif Bold';fill:#ffffff;fill-opacity:1"
         id="path10913" />
      <path
         d="m 481.3392,257.33333 v 1.32813 h -10.89843 q 0.16927,1.64062 1.18489,2.46094 1.01563,0.82031 2.83854,0.82031 1.47136,0 3.00782,-0.42969 1.54948,-0.44271 3.17708,-1.32812 v 3.59375 q -1.65365,0.625 -3.30729,0.9375 -1.65365,0.32552 -3.30729,0.32552 -3.95834,0 -6.15886,-2.00521 -2.1875,-2.01823 -2.1875,-5.65104 0,-3.56771 2.14844,-5.61198 2.16146,-2.04427 5.9375,-2.04427 3.4375,0 5.49479,2.07031 2.07031,2.07031 2.07031,5.53385 z m -4.79166,-1.54948 q 0,-1.32812 -0.78125,-2.13541 -0.76823,-0.82032 -2.01823,-0.82032 -1.35417,0 -2.20052,0.76823 -0.84636,0.75521 -1.05469,2.1875 z"
         style="font-style:normal;font-variant:normal;font-weight:bold;font-stretch:normal;font-size:26.66666794px;font-family:sans-serif;-inkscape-font-specification:'sans-serif Bold';fill:#ffffff;fill-opacity:1"
         id="path10915" />
      <path
         d="m 484.85483,244.40364 h 4.66146 v 20.26042 h -4.66146 z"
         style="font-style:normal;font-variant:normal;font-weight:bold;font-stretch:normal;font-size:26.66666794px;font-family:sans-serif;-inkscape-font-specification:'sans-serif Bold';fill:#ffffff;fill-opacity:1"
         id="path10917" />
      <path
         d="m 497.40692,245.22396 v 7.22656 h -3.08594 v -7.22656 z"
         style="font-style:normal;font-variant:normal;font-weight:bold;font-stretch:normal;font-size:26.66666794px;font-family:sans-serif;-inkscape-font-specification:'sans-serif Bold';fill:#ffffff;fill-opacity:1"
         id="path10919" />
    </g>
    <rect
       style="fill:none;fill-opacity:0.26666667;stroke:url(#linearGradient5788-2);stroke-width:1.31763339;stroke-miterlimit:4;stroke-dasharray:2.63526675, 2.63526675;stroke-dashoffset:0"
       id="rect5776-1"
       width="33.553593"
       height="30.010117"
       x="51.510571"
       y="159.18459" />
    <g
       aria-label="UART DOM."
       transform="matrix(0.26458333,0,0,0.26458333,-2.4054258,148.13894)"
       style="font-style:normal;font-weight:normal;font-size:40px;line-height:125%;font-family:sans-serif;letter-spacing:0px;word-spacing:0px;fill:#ffffff;fill-opacity:1;stroke:none;stroke-width:1px;stroke-linecap:butt;stroke-linejoin:miter;stroke-opacity:1"
       id="flowRoot8391">
      <path
         d="m 220.66016,57.716797 h 3.96484 v 17.714844 q 0,4.6875 1.69922,6.757812 1.69922,2.050781 5.50781,2.050781 3.78906,0 5.48828,-2.050781 1.69922,-2.070312 1.69922,-6.757812 V 57.716797 h 3.96484 v 18.203125 q 0,5.703125 -2.83203,8.613281 -2.8125,2.910156 -8.32031,2.910156 -5.52734,0 -8.35937,-2.910156 -2.8125,-2.910156 -2.8125,-8.613281 z"
         style=""
         id="path10955" />
      <path
         d="m 260.15234,61.603516 -5.35156,14.511718 h 10.72266 z m -2.22656,-3.886719 h 4.47266 l 11.11328,29.160156 h -4.10156 l -2.65625,-7.480469 h -13.14454 l -2.65625,7.480469 h -4.16015 z"
         style=""
         id="path10957" />
      <path
         d="m 291.57812,73.205078 q 1.26954,0.429688 2.46094,1.835938 1.21094,1.40625 2.42188,3.867187 l 4.0039,7.96875 h -4.23828 l -3.73047,-7.480469 q -1.44531,-2.929687 -2.8125,-3.886718 -1.34765,-0.957032 -3.6914,-0.957032 h -4.29688 V 86.876953 H 277.75 V 57.716797 h 8.90625 q 5,0 7.46094,2.089844 2.46093,2.089843 2.46093,6.308593 0,2.753907 -1.28906,4.570313 -1.26953,1.816406 -3.71094,2.519531 z m -9.88281,-12.246094 v 10.351563 h 4.96094 q 2.85156,0 4.29687,-1.308594 1.46485,-1.328125 1.46485,-3.886719 0,-2.558593 -1.46485,-3.847656 -1.44531,-1.308594 -4.29687,-1.308594 z"
         style=""
         id="path10959" />
      <path
         d="m 298.62891,57.716797 h 24.66796 v 3.320312 h -10.35156 v 25.839844 h -3.96484 V 61.037109 h -10.35156 z"
         style=""
         id="path10961" />
      <path
         d="m 225.05469,110.95898 v 22.67579 h 4.76562 q 6.03516,0 8.82813,-2.73438 2.8125,-2.73437 2.8125,-8.63281 0,-5.85938 -2.8125,-8.57422 -2.79297,-2.73438 -8.82813,-2.73438 z m -3.94532,-3.24218 h 8.10547 q 8.47657,0 12.44141,3.53515 3.96484,3.51563 3.96484,11.01563 0,7.53906 -3.98437,11.07422 -3.98438,3.53515 -12.42188,3.53515 h -8.10547 z"
         style=""
         id="path10963" />
      <path
         d="m 263.72656,110.39258 q -4.29687,0 -6.83594,3.20312 -2.51953,3.20313 -2.51953,8.73047 0,5.50781 2.51953,8.71094 2.53907,3.20312 6.83594,3.20312 4.29688,0 6.79688,-3.20312 2.51953,-3.20313 2.51953,-8.71094 0,-5.52734 -2.51953,-8.73047 -2.5,-3.20312 -6.79688,-3.20312 z m 0,-3.20313 q 6.13281,0 9.80469,4.1211 3.67187,4.10156 3.67187,11.01562 0,6.89453 -3.67187,11.01563 -3.67188,4.10156 -9.80469,4.10156 -6.15234,0 -9.84375,-4.10156 -3.67187,-4.10157 -3.67187,-11.01563 0,-6.91406 3.67187,-11.01562 3.69141,-4.1211 9.84375,-4.1211 z"
         style=""
         id="path10965" />
      <path
         d="m 283.375,107.7168 h 5.87891 l 7.4414,19.84375 7.48047,-19.84375 h 5.87891 v 29.16015 h -3.84766 v -25.60547 l -7.51953,20 h -3.96484 l -7.51954,-20 v 25.60547 H 283.375 Z"
         style=""
         id="path10967" />
      <path
         d="m 318.25781,131.91602 h 4.1211 v 4.96093 h -4.1211 z"
         style=""
         id="path10969" />
    </g>
    <rect
       style="fill:none;fill-opacity:0.26666667;stroke:url(#linearGradient5788-2-8);stroke-width:1.29499996;stroke-miterlimit:4;stroke-dasharray:2.59, 2.59;stroke-dashoffset:0"
       id="rect5776-1-9"
       width="63.277668"
       height="29.532732"
       x="111.75128"
       y="160.62598" />
    <g
       aria-label="COMMAND DOM."
       transform="matrix(0.26458333,0,0,0.26458333,57.596583,149.34161)"
       style="font-style:normal;font-weight:normal;font-size:40px;line-height:125%;font-family:sans-serif;letter-spacing:0px;word-spacing:0px;fill:#ffffff;fill-opacity:1;stroke:none;stroke-width:1px;stroke-linecap:butt;stroke-linejoin:miter;stroke-opacity:1"
       id="flowRoot8391-2">
      <path
         d="m 242.94531,59.962891 v 4.160156 q -1.99219,-1.855469 -4.25781,-2.773438 -2.24609,-0.917968 -4.78516,-0.917968 -5,0 -7.65625,3.066406 -2.65625,3.046875 -2.65625,8.828125 0,5.761719 2.65625,8.828125 2.65625,3.046875 7.65625,3.046875 2.53907,0 4.78516,-0.917969 2.26562,-0.917969 4.25781,-2.773437 v 4.121093 q -2.07031,1.40625 -4.39453,2.109375 -2.30469,0.703125 -4.88281,0.703125 -6.6211,0 -10.42969,-4.042968 -3.80859,-4.0625 -3.80859,-11.074219 0,-7.03125 3.80859,-11.074219 3.80859,-4.0625 10.42969,-4.0625 2.61719,0 4.92187,0.703125 2.32422,0.683594 4.35547,2.070313 z"
         style=""
         id="path10972" />
      <path
         d="m 260.91406,60.392578 q -4.29687,0 -6.83594,3.203125 -2.51953,3.203125 -2.51953,8.730469 0,5.507812 2.51953,8.710937 2.53907,3.203125 6.83594,3.203125 4.29688,0 6.79688,-3.203125 2.51953,-3.203125 2.51953,-8.710937 0,-5.527344 -2.51953,-8.730469 -2.5,-3.203125 -6.79688,-3.203125 z m 0,-3.203125 q 6.13281,0 9.80469,4.121094 3.67187,4.101562 3.67187,11.015625 0,6.894531 -3.67187,11.015625 -3.67188,4.101562 -9.80469,4.101562 -6.15234,0 -9.84375,-4.101562 -3.67187,-4.101563 -3.67187,-11.015625 0,-6.914063 3.67187,-11.015625 3.69141,-4.121094 9.84375,-4.121094 z"
         style=""
         id="path10974" />
      <path
         d="m 280.5625,57.716797 h 5.87891 l 7.4414,19.84375 7.48047,-19.84375 h 5.87891 v 29.160156 h -3.84766 V 61.271484 l -7.51953,20 h -3.96484 l -7.51954,-20 v 25.605469 h -3.82812 z"
         style=""
         id="path10976" />
      <path
         d="m 315.09375,57.716797 h 5.87891 l 7.4414,19.84375 7.48047,-19.84375 h 5.87891 v 29.160156 h -3.84766 V 61.271484 l -7.51953,20 h -3.96484 l -7.51954,-20 v 25.605469 h -3.82812 z"
         style=""
         id="path10978" />
      <path
         d="m 359.37109,61.603516 -5.35156,14.511718 h 10.72266 z m -2.22656,-3.886719 h 4.47266 l 11.11328,29.160156 h -4.10156 l -2.65625,-7.480469 h -13.14454 l -2.65625,7.480469 h -4.16015 z"
         style=""
         id="path10980" />
      <path
         d="m 376.96875,57.716797 h 5.3125 l 12.92969,24.394531 V 57.716797 h 3.82812 v 29.160156 h -5.3125 L 380.79687,62.482422 v 24.394531 h -3.82812 z"
         style=""
         id="path10982" />
      <path
         d="m 410.83594,60.958984 v 22.675782 h 4.76562 q 6.03516,0 8.82813,-2.734375 2.8125,-2.734375 2.8125,-8.632813 0,-5.859375 -2.8125,-8.574219 -2.79297,-2.734375 -8.82813,-2.734375 z m -3.94532,-3.242187 h 8.10547 q 8.47657,0 12.44141,3.535156 3.96484,3.515625 3.96484,11.015625 0,7.539063 -3.98437,11.074219 -3.98438,3.535156 -12.42188,3.535156 h -8.10547 z"
         style=""
         id="path10984" />
      <path
         d="m 225.05469,110.95898 v 22.67579 h 4.76562 q 6.03516,0 8.82813,-2.73438 2.8125,-2.73437 2.8125,-8.63281 0,-5.85938 -2.8125,-8.57422 -2.79297,-2.73438 -8.82813,-2.73438 z m -3.94532,-3.24218 h 8.10547 q 8.47657,0 12.44141,3.53515 3.96484,3.51563 3.96484,11.01563 0,7.53906 -3.98437,11.07422 -3.98438,3.53515 -12.42188,3.53515 h -8.10547 z"
         style=""
         id="path10986" />
      <path
         d="m 263.72656,110.39258 q -4.29687,0 -6.83594,3.20312 -2.51953,3.20313 -2.51953,8.73047 0,5.50781 2.51953,8.71094 2.53907,3.20312 6.83594,3.20312 4.29688,0 6.79688,-3.20312 2.51953,-3.20313 2.51953,-8.71094 0,-5.52734 -2.51953,-8.73047 -2.5,-3.20312 -6.79688,-3.20312 z m 0,-3.20313 q 6.13281,0 9.80469,4.1211 3.67187,4.10156 3.67187,11.01562 0,6.89453 -3.67187,11.01563 -3.67188,4.10156 -9.80469,4.10156 -6.15234,0 -9.84375,-4.10156 -3.67187,-4.10157 -3.67187,-11.01563 0,-6.91406 3.67187,-11.01562 3.69141,-4.1211 9.84375,-4.1211 z"
         style=""
         id="path10988" />
      <path
         d="m 283.375,107.7168 h 5.87891 l 7.4414,19.84375 7.48047,-19.84375 h 5.87891 v 29.16015 h -3.84766 v -25.60547 l -7.51953,20 h -3.96484 l -7.51954,-20 v 25.60547 H 283.375 Z"
         style=""
         id="path10990" />
      <path
         d="m 318.25781,131.91602 h 4.1211 v 4.96093 h -4.1211 z"
         style=""
         id="path10992" />
    </g>
    <rect
       style="fill:none;fill-opacity:0.26666667;stroke:#ff0000;stroke-width:1.16552305;stroke-miterlimit:4;stroke-dasharray:2.3310461, 2.3310461;stroke-dashoffset:0"
       id="rect5776-1-92"
       width="59.096676"
       height="13.324612"
       x="6.1321473"
       y="118.08246" />
    <g
       aria-label="UART DEVICE"
       transform="matrix(0.26458333,0,0,0.26458333,-25.390605,102.43721)"
       style="font-style:normal;font-weight:normal;font-size:40px;line-height:125%;font-family:sans-serif;letter-spacing:0px;word-spacing:0px;fill:#000000;fill-opacity:1;stroke:none;stroke-width:1px;stroke-linecap:butt;stroke-linejoin:miter;stroke-opacity:1"
       id="flowRoot8455">
      <path
         d="m 135.46256,74.503254 h 2.64323 v 11.809897 q 0,3.125 1.13281,4.505208 1.13282,1.367188 3.67188,1.367188 2.52604,0 3.65885,-1.367188 1.13281,-1.380208 1.13281,-4.505208 V 74.503254 h 2.64323 v 12.135418 q 0,3.802083 -1.88802,5.742187 -1.875,1.940105 -5.54687,1.940105 -3.6849,0 -5.57292,-1.940105 -1.875,-1.940104 -1.875,-5.742187 z"
         style="font-size:26.66666794px;text-align:center;text-anchor:middle;fill:#ffffff"
         id="path11041" />
      <path
         d="m 161.79069,77.0944 -3.56771,9.67448 h 7.14844 z m -1.48438,-2.591146 h 2.98177 l 7.40886,19.440105 h -2.73438 l -1.77083,-4.986979 h -8.76302 l -1.77084,4.986979 h -2.77343 z"
         style="font-size:26.66666794px;text-align:center;text-anchor:middle;fill:#ffffff"
         id="path11043" />
      <path
         d="m 182.74121,84.828776 q 0.84635,0.286458 1.64062,1.223958 0.8073,0.9375 1.61459,2.578125 l 2.66927,5.3125 h -2.82552 l -2.48698,-4.986979 q -0.96354,-1.953125 -1.875,-2.591146 -0.89844,-0.638021 -2.46094,-0.638021 h -2.86458 v 8.216146 h -2.63021 V 74.503254 h 5.9375 q 3.33333,0 4.97396,1.39323 1.64062,1.393229 1.64062,4.205729 0,1.835937 -0.85937,3.046875 -0.84636,1.210938 -2.47396,1.679688 z m -6.58854,-8.164063 v 6.901042 h 3.30729 q 1.90104,0 2.86458,-0.872396 0.97656,-0.885417 0.97656,-2.591146 0,-1.705729 -0.97656,-2.565104 -0.96354,-0.872396 -2.86458,-0.872396 z"
         style="font-size:26.66666794px;text-align:center;text-anchor:middle;fill:#ffffff"
         id="path11045" />
      <path
         d="m 187.44173,74.503254 h 16.44531 v 2.213542 H 196.986 v 17.226563 h -2.64323 V 76.716796 h -6.90104 z"
         style="font-size:26.66666794px;text-align:center;text-anchor:middle;fill:#ffffff"
         id="path11047" />
      <path
         d="m 217.55892,76.664713 v 15.117188 h 3.17708 q 4.02344,0 5.88542,-1.822917 1.875,-1.822917 1.875,-5.755208 0,-3.906251 -1.875,-5.716147 -1.86198,-1.822916 -5.88542,-1.822916 z m -2.63021,-2.161459 h 5.40365 q 5.65104,0 8.29427,2.356771 2.64323,2.34375 2.64323,7.343751 0,5.026041 -2.65625,7.382812 -2.65625,2.356771 -8.28125,2.356771 h -5.40365 z"
         style="font-size:26.66666794px;text-align:center;text-anchor:middle;fill:#ffffff"
         id="path11049" />
      <path
         d="m 235.44954,74.503254 h 12.29167 v 2.213542 h -9.66146 v 5.755209 h 9.25781 v 2.213541 h -9.25781 v 7.044272 h 9.89583 v 2.213541 h -12.52604 z"
         style="font-size:26.66666794px;text-align:center;text-anchor:middle;fill:#ffffff"
         id="path11051" />
      <path
         d="m 257.33756,93.943359 -7.42187,-19.440105 h 2.74739 l 6.15886,16.367189 6.17187,-16.367189 h 2.73438 l -7.40886,19.440105 z"
         style="font-size:26.66666794px;text-align:center;text-anchor:middle;fill:#ffffff"
         id="path11053" />
      <path
         d="m 270.55371,74.503254 h 2.63021 v 19.440105 h -2.63021 z"
         style="font-size:26.66666794px;text-align:center;text-anchor:middle;fill:#ffffff"
         id="path11055" />
      <path
         d="m 292.97558,76.00065 v 2.773438 q -1.32812,-1.236979 -2.83854,-1.848959 -1.4974,-0.611979 -3.1901,-0.611979 -3.33334,0 -5.10417,2.044271 -1.77083,2.03125 -1.77083,5.885417 0,3.841146 1.77083,5.885417 1.77083,2.03125 5.10417,2.03125 1.6927,0 3.1901,-0.611979 1.51042,-0.611979 2.83854,-1.848958 v 2.747395 q -1.38021,0.937501 -2.92969,1.406251 -1.53645,0.46875 -3.2552,0.46875 -4.41407,0 -6.95313,-2.695313 -2.53906,-2.708334 -2.53906,-7.382813 0,-4.6875 2.53906,-7.382813 2.53906,-2.708333 6.95313,-2.708333 1.74479,0 3.28125,0.46875 1.54948,0.455729 2.90364,1.380208 z"
         style="font-size:26.66666794px;text-align:center;text-anchor:middle;fill:#ffffff"
         id="path11057" />
      <path
         d="m 297.06413,74.503254 h 12.29167 v 2.213542 h -9.66146 v 5.755209 h 9.25782 v 2.213541 h -9.25782 v 7.044272 h 9.89584 v 2.213541 h -12.52605 z"
         style="font-size:26.66666794px;text-align:center;text-anchor:middle;fill:#ffffff"
         id="path11059" />
    </g>
    <rect
       style="fill:none;fill-opacity:0.26666667;stroke:#ff0000;stroke-width:1.16552305;stroke-miterlimit:4;stroke-dasharray:2.33104612, 2.33104612;stroke-dashoffset:0"
       id="rect5776-1-92-2"
       width="59.096676"
       height="13.324612"
       x="41.812626"
       y="137.19223" />
    <g
       aria-label="RING BUFFER"
       transform="matrix(0.26458333,0,0,0.26458333,10.289874,121.54698)"
       style="font-style:normal;font-weight:normal;font-size:40px;line-height:125%;font-family:sans-serif;letter-spacing:0px;word-spacing:0px;fill:#000000;fill-opacity:1;stroke:none;stroke-width:1px;stroke-linecap:butt;stroke-linejoin:miter;stroke-opacity:1"
       id="flowRoot8455-8">
      <path
         d="m 144.32975,84.828776 q 0.84635,0.286458 1.64062,1.223958 0.8073,0.9375 1.61459,2.578125 l 2.66927,5.3125 h -2.82552 l -2.48698,-4.986979 q -0.96354,-1.953125 -1.875,-2.591146 -0.89844,-0.638021 -2.46094,-0.638021 h -2.86458 v 8.216146 H 135.111 V 74.503254 h 5.9375 q 3.33333,0 4.97396,1.39323 1.64062,1.393229 1.64062,4.205729 0,1.835937 -0.85937,3.046875 -0.84636,1.210938 -2.47396,1.679688 z m -6.58854,-8.164063 v 6.901042 h 3.30729 q 1.90104,0 2.86458,-0.872396 0.97656,-0.885417 0.97656,-2.591146 0,-1.705729 -0.97656,-2.565104 -0.96354,-0.872396 -2.86458,-0.872396 z"
         style="font-size:26.66666794px;text-align:center;text-anchor:middle;fill:#ffffff"
         id="path11020" />
      <path
         d="m 153.65267,74.503254 h 2.6302 v 19.440105 h -2.6302 z"
         style="font-size:26.66666794px;text-align:center;text-anchor:middle;fill:#ffffff"
         id="path11022" />
      <path
         d="m 161.51725,74.503254 h 3.54167 l 8.61979,16.263022 V 74.503254 h 2.55208 v 19.440105 h -3.54166 l -8.6198,-16.263021 v 16.263021 h -2.55208 z"
         style="font-size:26.66666794px;text-align:center;text-anchor:middle;fill:#ffffff"
         id="path11024" />
      <path
         d="m 194.72038,91.169922 v -5.221355 h -4.29688 v -2.161458 h 6.90104 v 8.346354 q -1.52344,1.08073 -3.35937,1.640626 -1.83594,0.546875 -3.91927,0.546875 -4.5573,0 -7.13542,-2.656251 -2.56511,-2.669271 -2.56511,-7.421875 0,-4.765625 2.56511,-7.421875 2.57812,-2.669271 7.13542,-2.669271 1.90104,0 3.60677,0.46875 1.71875,0.46875 3.16406,1.380208 v 2.799479 q -1.45833,-1.236979 -3.09896,-1.861979 -1.64062,-0.625 -3.45052,-0.625 -3.56771,0 -5.36458,1.992188 -1.78386,1.992187 -1.78386,5.9375 0,3.932292 1.78386,5.92448 1.79687,1.992187 5.36458,1.992187 1.39323,0 2.48698,-0.234375 1.09375,-0.247396 1.96615,-0.755208 z"
         style="font-size:26.66666794px;text-align:center;text-anchor:middle;fill:#ffffff"
         id="path11026" />
      <path
         d="m 213.26204,84.659505 v 7.122396 h 4.21875 q 2.1224,0 3.13802,-0.872396 1.02865,-0.885417 1.02865,-2.695313 0,-1.822916 -1.02865,-2.682291 -1.01562,-0.872396 -3.13802,-0.872396 z m 0,-7.994792 v 5.859375 h 3.89323 q 1.92709,0 2.86459,-0.716146 0.95052,-0.729167 0.95052,-2.213542 0,-1.471354 -0.95052,-2.200521 -0.9375,-0.729166 -2.86459,-0.729166 z m -2.63021,-2.161459 h 6.71875 q 3.00782,0 4.63542,1.25 1.62761,1.25 1.62761,3.554688 0,1.783854 -0.83334,2.838542 -0.83333,1.054687 -2.44791,1.315104 1.9401,0.416667 3.00781,1.744792 1.08073,1.315104 1.08073,3.294271 0,2.604167 -1.77084,4.023437 -1.77083,1.419271 -5.03906,1.419271 h -6.97917 z"
         style="font-size:26.66666794px;text-align:center;text-anchor:middle;fill:#ffffff"
         id="path11028" />
      <path
         d="m 228.61361,74.503254 h 2.64322 v 11.809897 q 0,3.125 1.13282,4.505208 1.13281,1.367188 3.67187,1.367188 2.52604,0 3.65886,-1.367188 1.13281,-1.380208 1.13281,-4.505208 V 74.503254 h 2.64323 v 12.135418 q 0,3.802083 -1.88802,5.742187 -1.875,1.940105 -5.54688,1.940105 -3.68489,0 -5.57291,-1.940105 -1.875,-1.940104 -1.875,-5.742187 z"
         style="font-size:26.66666794px;text-align:center;text-anchor:middle;fill:#ffffff"
         id="path11030" />
      <path
         d="m 248.44433,74.503254 h 11.17188 v 2.213542 h -8.54167 v 5.729167 h 7.70834 v 2.213542 h -7.70834 v 9.283854 h -2.63021 z"
         style="font-size:26.66666794px;text-align:center;text-anchor:middle;fill:#ffffff"
         id="path11032" />
      <path
         d="m 263.80892,74.503254 h 11.17188 v 2.213542 h -8.54167 v 5.729167 h 7.70833 v 2.213542 h -7.70833 v 9.283854 h -2.63021 z"
         style="font-size:26.66666794px;text-align:center;text-anchor:middle;fill:#ffffff"
         id="path11034" />
      <path
         d="m 279.1735,74.503254 h 12.29167 v 2.213542 h -9.66146 v 5.755209 h 9.25781 v 2.213541 h -9.25781 v 7.044272 h 9.89583 v 2.213541 H 279.1735 Z"
         style="font-size:26.66666794px;text-align:center;text-anchor:middle;fill:#ffffff"
         id="path11036" />
      <path
         d="m 305.26725,84.828776 q 0.84635,0.286458 1.64062,1.223958 0.8073,0.9375 1.61459,2.578125 l 2.66927,5.3125 h -2.82552 l -2.48698,-4.986979 q -0.96354,-1.953125 -1.875,-2.591146 -0.89844,-0.638021 -2.46094,-0.638021 h -2.86458 v 8.216146 H 296.0485 V 74.503254 h 5.9375 q 3.33333,0 4.97396,1.39323 1.64062,1.393229 1.64062,4.205729 0,1.835937 -0.85937,3.046875 -0.84636,1.210938 -2.47396,1.679688 z m -6.58854,-8.164063 v 6.901042 h 3.30729 q 1.90104,0 2.86458,-0.872396 0.97656,-0.885417 0.97656,-2.591146 0,-1.705729 -0.97656,-2.565104 -0.96354,-0.872396 -2.86458,-0.872396 z"
         style="font-size:26.66666794px;text-align:center;text-anchor:middle;fill:#ffffff"
         id="path11038" />
    </g>
    <rect
       style="fill:none;fill-opacity:0.26666667;stroke:#ff0000;stroke-width:1.27314866;stroke-miterlimit:4;stroke-dasharray:2.54629725, 2.54629725;stroke-dashoffset:0"
       id="rect5776-1-92-2-6"
       width="69.679825"
       height="13.484256"
       x="123.91818"
       y="126.28798" />
    <g
       aria-label="COMMAND STATE"
       transform="matrix(0.26458333,0,0,0.26458333,92.341618,110.58893)"
       style="font-style:normal;font-weight:normal;font-size:40px;line-height:125%;font-family:sans-serif;letter-spacing:0px;word-spacing:0px;fill:#000000;fill-opacity:1;stroke:none;stroke-width:1px;stroke-linecap:butt;stroke-linejoin:miter;stroke-opacity:1"
       id="flowRoot8455-8-1">
      <path
         d="m 151.53027,76.00065 v 2.773438 q -1.32813,-1.236979 -2.83854,-1.848959 -1.4974,-0.611979 -3.19011,-0.611979 -3.33333,0 -5.10416,2.044271 -1.77084,2.03125 -1.77084,5.885417 0,3.841146 1.77084,5.885417 1.77083,2.03125 5.10416,2.03125 1.69271,0 3.19011,-0.611979 1.51041,-0.611979 2.83854,-1.848958 v 2.747395 q -1.38021,0.937501 -2.92969,1.406251 -1.53646,0.46875 -3.25521,0.46875 -4.41406,0 -6.95312,-2.695313 -2.53907,-2.708334 -2.53907,-7.382813 0,-4.6875 2.53907,-7.382813 2.53906,-2.708333 6.95312,-2.708333 1.74479,0 3.28125,0.46875 1.54948,0.455729 2.90365,1.380208 z"
         style="font-size:26.66666794px;line-height:100%;text-align:center;text-anchor:middle;fill:#ffffff"
         id="path10995" />
      <path
         d="m 163.50944,76.287109 q -2.86459,0 -4.5573,2.135416 -1.67968,2.135417 -1.67968,5.820313 0,3.671875 1.67968,5.807292 1.69271,2.135417 4.5573,2.135417 2.86458,0 4.53125,-2.135417 1.67968,-2.135417 1.67968,-5.807292 0,-3.684896 -1.67968,-5.820313 -1.66667,-2.135416 -4.53125,-2.135416 z m 0,-2.135417 q 4.08854,0 6.53645,2.747396 2.44792,2.734375 2.44792,7.34375 0,4.596354 -2.44792,7.34375 -2.44791,2.734376 -6.53645,2.734376 -4.10157,0 -6.5625,-2.734376 -2.44792,-2.734375 -2.44792,-7.34375 0,-4.609375 2.44792,-7.34375 2.46093,-2.747396 6.5625,-2.747396 z"
         style="font-size:26.66666794px;line-height:100%;text-align:center;text-anchor:middle;fill:#ffffff"
         id="path10997" />
      <path
         d="m 176.60839,74.503254 h 3.91928 l 4.96093,13.229168 4.98698,-13.229168 h 3.91927 v 19.440105 h -2.5651 V 76.873046 l -5.01302,13.333334 h -2.64323 l -5.01302,-13.333334 v 17.070313 h -2.55209 z"
         style="font-size:26.66666794px;line-height:100%;text-align:center;text-anchor:middle;fill:#ffffff"
         id="path10999" />
      <path
         d="m 199.62923,74.503254 h 3.91927 l 4.96094,13.229168 4.98697,-13.229168 h 3.91928 v 19.440105 h -2.56511 V 76.873046 l -5.01302,13.333334 h -2.64323 l -5.01302,-13.333334 v 17.070313 h -2.55208 z"
         style="font-size:26.66666794px;line-height:100%;text-align:center;text-anchor:middle;fill:#ffffff"
         id="path11001" />
      <path
         d="m 229.14746,77.0944 -3.56771,9.67448 h 7.14844 z m -1.48438,-2.591146 h 2.98177 l 7.40886,19.440105 h -2.73438 L 233.5485,88.95638 h -8.76302 l -1.77083,4.986979 h -2.77344 z"
         style="font-size:26.66666794px;line-height:100%;text-align:center;text-anchor:middle;fill:#ffffff"
         id="path11003" />
      <path
         d="m 240.87923,74.503254 h 3.54166 l 8.6198,16.263022 V 74.503254 h 2.55208 v 19.440105 h -3.54167 l -8.61979,-16.263021 v 16.263021 h -2.55208 z"
         style="font-size:26.66666794px;line-height:100%;text-align:center;text-anchor:middle;fill:#ffffff"
         id="path11005" />
      <path
         d="m 263.45736,76.664713 v 15.117188 h 3.17708 q 4.02344,0 5.88542,-1.822917 1.875,-1.822917 1.875,-5.755208 0,-3.906251 -1.875,-5.716147 -1.86198,-1.822916 -5.88542,-1.822916 z m -2.63021,-2.161459 h 5.40364 q 5.65105,0 8.29428,2.356771 2.64322,2.34375 2.64322,7.343751 0,5.026041 -2.65625,7.382812 -2.65625,2.356771 -8.28125,2.356771 h -5.40364 z"
         style="font-size:26.66666794px;line-height:100%;text-align:center;text-anchor:middle;fill:#ffffff"
         id="path11007" />
      <path
         d="m 301.49122,75.141275 v 2.565104 q -1.4974,-0.716145 -2.82552,-1.067708 -1.32813,-0.351562 -2.56511,-0.351562 -2.14844,0 -3.32031,0.833333 -1.15886,0.833333 -1.15886,2.369792 0,1.289062 0.76823,1.953125 0.78125,0.651041 2.94271,1.054687 l 1.58854,0.325521 q 2.94271,0.559896 4.33594,1.979167 1.40625,1.40625 1.40625,3.776042 0,2.825521 -1.90104,4.283854 -1.88802,1.458334 -5.54688,1.458334 -1.3802,0 -2.9427,-0.3125 -1.54948,-0.3125 -3.21615,-0.92448 v -2.708333 q 1.60156,0.898437 3.13802,1.354167 1.53646,0.455729 3.02083,0.455729 2.25261,0 3.47657,-0.885417 1.22396,-0.885417 1.22396,-2.526042 0,-1.432291 -0.88542,-2.239583 -0.8724,-0.807292 -2.87761,-1.210938 l -1.60156,-0.3125 q -2.94271,-0.585937 -4.25781,-1.835937 -1.31511,-1.25 -1.31511,-3.476563 0,-2.578125 1.8099,-4.0625 1.82292,-1.484375 5.01302,-1.484375 1.36719,0 2.78646,0.247396 1.41927,0.247395 2.90365,0.742187 z"
         style="font-size:26.66666794px;line-height:100%;text-align:center;text-anchor:middle;fill:#ffffff"
         id="path11009" />
      <path
         d="m 304.06934,74.503254 h 16.44531 v 2.213542 h -6.90104 v 17.226563 h -2.64323 V 76.716796 h -6.90104 z"
         style="font-size:26.66666794px;line-height:100%;text-align:center;text-anchor:middle;fill:#ffffff"
         id="path11011" />
      <path
         d="m 327.48079,77.0944 -3.5677,9.67448 h 7.14843 z m -1.48437,-2.591146 h 2.98177 l 7.40885,19.440105 h -2.73437 l -1.77083,-4.986979 h -8.76303 l -1.77083,4.986979 h -2.77344 z"
         style="font-size:26.66666794px;line-height:100%;text-align:center;text-anchor:middle;fill:#ffffff"
         id="path11013" />
      <path
         d="m 334.43393,74.503254 h 16.44531 v 2.213542 h -6.90104 v 17.226563 h -2.64323 V 76.716796 h -6.90104 z"
         style="font-size:26.66666794px;line-height:100%;text-align:center;text-anchor:middle;fill:#ffffff"
         id="path11015" />
      <path
         d="m 353.43132,74.503254 h 12.29167 v 2.213542 h -9.66146 v 5.755209 h 9.25781 v 2.213541 h -9.25781 v 7.044272 h 9.89583 v 2.213541 h -12.52604 z"
         style="font-size:26.66666794px;line-height:100%;text-align:center;text-anchor:middle;fill:#ffffff"
         id="path11017" />
    </g>
    <path
       style="display:inline;fill:#ffffff;fill-rule:evenodd;stroke:url(#linearGradient4702-2);stroke-width:0.82635492;stroke-linecap:butt;stroke-linejoin:miter;stroke-miterlimit:4;stroke-dasharray:none;stroke-opacity:1"
       d="m 60.247693,193.52343 1.83605,-9.1925 -9.10051,0.89164 2.231507,2.38462 -13.864475,12.24787 -2.101841,-2.50149 -1.85271,9.19053 9.100028,-0.87402 -2.22648,-2.38925 0.0037,-0.003 0.02249,0.0224 13.843841,-12.27154 z"
       id="path4647-0-6"
       inkscape:connector-curvature="0"
       inkscape:transform-center-x="-2.9969267"
       inkscape:transform-center-y="-1.9526714" />
    <path
       style="display:inline;fill:#ffffff;fill-rule:evenodd;stroke:url(#linearGradient4702-2-7);stroke-width:1.2489543;stroke-linecap:butt;stroke-linejoin:miter;stroke-miterlimit:4;stroke-dasharray:none;stroke-opacity:1"
       d="m 111.75128,190.15871 13.59659,-11.94099 -17.009,1.158 1.23456,3.09771 -38.1947,15.90956 -0.874781,-3.2495 -13.623639,11.93842 16.988259,-1.1351 -1.220524,-3.10372 0.01051,-0.005 0.01426,0.029 38.185125,-15.94029 z"
       id="path4647-0-6-4"
       inkscape:connector-curvature="0"
       inkscape:transform-center-x="-7.4724486"
       inkscape:transform-center-y="-2.5363967" />
    <path
       style="display:inline;fill:none;fill-rule:evenodd;stroke:#ff0000;stroke-width:2;stroke-linecap:butt;stroke-linejoin:miter;stroke-miterlimit:1.20000005;stroke-dasharray:1.00000003, 1.00000003;stroke-dashoffset:0;stroke-opacity:1"
       d="m 71.65496,150.50955 0.187089,8.79316"
       id="path9826"
       inkscape:connector-type="polyline"
       inkscape:connector-curvature="0" />
    <path
       style="display:inline;fill:none;fill-rule:evenodd;stroke:#ff0000;stroke-width:2;stroke-linecap:butt;stroke-linejoin:miter;stroke-miterlimit:1.20000005;stroke-dasharray:1.00000004, 1.00000004;stroke-dashoffset:0;stroke-opacity:1"
       d="m 25.069882,131.80068 26.005325,38.72735"
       id="path9826-5"
       inkscape:connector-type="polyline"
       inkscape:connector-curvature="0" />
    <path
       style="display:inline;fill:none;fill-rule:evenodd;stroke:#ff0000;stroke-width:2;stroke-linecap:butt;stroke-linejoin:miter;stroke-miterlimit:1.20000005;stroke-dasharray:1.00000004, 1.00000004;stroke-dashoffset:0;stroke-opacity:1"
       d="m 158.4641,139.84549 -3.36759,20.20558"
       id="path9826-0"
       inkscape:connector-type="polyline"
       inkscape:connector-curvature="0" />
  </g>
</svg>
